<svg width="48" height="25" viewBox="0 0 48 25" fill="none" xmlns="http://www.w3.org/2000/svg">
<path d="M0.410156 8.96094C0.410156 4.54266 3.99188 0.960938 8.41016 0.960938H39.4102C43.8284 0.960938 47.4102 4.54266 47.4102 8.96094V16.9609C47.4102 21.3792 43.8284 24.9609 39.4102 24.9609H8.41016C3.99188 24.9609 0.410156 21.3792 0.410156 16.9609V8.96094Z" fill="white"/>
<path d="M9.95016 18.1049C11.9062 18.1049 13.2382 16.8089 13.2382 14.9129C13.2382 13.1849 12.0742 11.9969 10.3222 11.9969C9.72216 11.9969 9.19416 12.1529 8.77416 12.4289L9.24216 10.6049H12.7102V9.18894H8.13816L7.05816 13.7849L8.41416 14.0729C8.72616 13.6169 9.33816 13.2809 10.0102 13.2809C11.0662 13.2809 11.6782 13.9769 11.6782 14.9969C11.6782 16.0649 11.0182 16.7369 9.98616 16.7369C9.01416 16.7369 8.42616 16.1489 8.42616 15.1529H6.90216C6.90216 16.9289 8.11416 18.1049 9.95016 18.1049ZM15.158 18.1049C15.686 18.1049 16.13 17.6729 16.13 17.1569C16.13 16.6289 15.686 16.1969 15.158 16.1969C14.63 16.1969 14.186 16.6289 14.186 17.1569C14.186 17.6729 14.63 18.1049 15.158 18.1049ZM16.9926 13.5929C16.9926 16.3049 18.3726 18.1169 20.7006 18.1169C23.0286 18.1169 24.4206 16.3049 24.4206 13.5929C24.4206 10.8689 22.9446 9.02094 20.7006 9.02094C18.4566 9.02094 16.9926 10.8689 16.9926 13.5929ZM18.5046 13.5929C18.5046 11.5169 19.3206 10.3769 20.7006 10.3769C22.0926 10.3769 22.9086 11.5169 22.9086 13.5929C22.9086 15.6209 22.0926 16.7609 20.7006 16.7609C19.3206 16.7609 18.5046 15.6209 18.5046 13.5929Z" fill="#1F2937"/>
<path d="M34.9535 7.98547C35.1297 7.59022 35.6907 7.59022 35.8668 7.98547L36.9503 10.4161C37.023 10.5791 37.177 10.691 37.3545 10.7098L40.001 10.9891C40.4313 11.0345 40.6047 11.5681 40.2832 11.8578L38.3064 13.6393C38.1738 13.7588 38.1149 13.9399 38.152 14.1145L38.7041 16.7177C38.7939 17.1411 38.3401 17.4708 37.9652 17.2546L35.66 15.925C35.5054 15.8358 35.3149 15.8358 35.1603 15.925L32.8551 17.2546C32.4803 17.4708 32.0264 17.1411 32.1162 16.7177L32.6683 14.1145C32.7054 13.9399 32.6465 13.7588 32.5139 13.6393L30.5371 11.8578C30.2156 11.5681 30.389 11.0345 30.8193 10.9891L33.4658 10.7098C33.6433 10.691 33.7973 10.5791 33.87 10.4161L34.9535 7.98547Z" fill="#FF76DF"/>
</svg>
