<svg xmlns="http://www.w3.org/2000/svg" width="634" height="501" fill="none" viewBox="0 0 634 501"><g id="Group 7 Copy 2"><g id="Mask" filter="url(#filter0_dd_5321_73657)"><rect width="529.986" height="396.937" x="52" y="30" fill="#fff" rx="15.658"/></g><ellipse id="Oval" cx="73.77" cy="50.298" fill="#D6DADE" rx="6.756" ry="6.766"/><ellipse id="Oval Copy" cx="93.287" cy="50.298" fill="#D6DADE" rx="6.756" ry="6.766"/><ellipse id="Oval Copy 2" cx="112.805" cy="50.298" fill="#D6DADE" rx="6.756" ry="6.766"/><g id="Group 7 + Group 19 Mask"><path id="Mask_2" fill="#E9F3FF" d="M119.77 69.155h462.229v342.187c0 8.648-7.01 15.658-15.658 15.658H119.77V69.155Z"/><mask id="mask0_5321_73657" width="463" height="358" x="119" y="69" maskUnits="userSpaceOnUse" style="mask-type:luminance"><path id="Mask_3" fill="#fff" d="M119.77 69.155h462.229v342.187c0 8.648-7.01 15.658-15.658 15.658H119.77V69.155Z"/></mask><g mask="url(#mask0_5321_73657)"><g id="Group 7"><g id="Group 16" clip-path="url(#clip0_5321_73657)"><g id="Group 4 Copy + JAN + FEB Copy + MAR Copy + APR Copy + MAY Copy + JUN Copy Mask"><path id="Mask_4" fill="#fff" d="M143.141 150.214h188.923v140.962c0 8.648-7.011 15.658-15.658 15.658H158.799c-8.648 0-15.658-7.01-15.658-15.658V150.214Z"/><mask id="mask1_5321_73657" width="190" height="157" x="143" y="150" maskUnits="userSpaceOnUse" style="mask-type:luminance"><path id="Mask_5" fill="#fff" d="M143.141 150.214h188.923v140.962c0 8.648-7.011 15.658-15.658 15.658H158.799c-8.648 0-15.658-7.01-15.658-15.658V150.214Z"/></mask><g mask="url(#mask1_5321_73657)"><g id="Group 4 Copy"><path id="Path 4" fill="#CCE2FF" fill-rule="evenodd" d="M143.141 249.249c11.071 0 14.546 22.418 31.487 22.418s13.422-53.375 31.487-53.375c18.066 0 9.916 67.979 31.487 67.979 21.572 0 19.572-52.984 31.487-52.984 11.916 0 11.916 15.962 31.488 15.962s26.298-19.342 31.487-28.465v137.604H143.141V249.249Z" clip-rule="evenodd"/><path id="Path 4 Copy" stroke="#4D99FF" stroke-linecap="round" stroke-linejoin="round" stroke-width="1.566" d="M143.141 249.103c11.071 0 14.546 22.313 31.487 22.313s13.422-53.124 31.487-53.124c18.066 0 9.916 67.66 31.487 67.66 21.572 0 19.572-52.735 31.487-52.735 11.916 0 11.916 15.886 31.488 15.886s26.298-19.25 31.487-28.331"/></g></g></g><path id="Rectangle Copy 15" fill="#002E6E" d="M142.984 109.176c0-8.648 7.011-15.658 15.659-15.658h157.606c8.648 0 15.659 7.01 15.659 15.658v41.352H142.984v-41.352Z"/><path id="Line Copy 3" stroke="#fff" stroke-linecap="square" stroke-width="1.566" d="M155.262 200.411h163.431"/><g id="shopify_monotone_white copy" fill="#fff"><path id="s_5_" d="M180.647 122.24c-.615-.341-.939-.616-.939-1.005 0-.503.437-.811 1.133-.811.81 0 1.522.341 1.522.341l.566-1.735s-.518-.405-2.055-.405c-2.137 0-3.626 1.232-3.626 2.95 0 .973.696 1.719 1.618 2.254.745.421 1.004.729 1.004 1.167 0 .47-.372.843-1.068.843-1.036 0-2.008-.535-2.008-.535l-.599 1.734s.907.6 2.412.6c2.202 0 3.772-1.086 3.772-3.031.032-1.07-.777-1.816-1.732-2.367Z"/><path id="h_5_" d="M189.42 118.592c-1.084 0-1.926.519-2.59 1.297l-.032-.016.939-4.928h-2.461l-2.38 12.531h2.445l.809-4.28c.324-1.621 1.15-2.61 1.927-2.61.55 0 .76.373.76.908 0 .341-.032.746-.113 1.086l-.923 4.912h2.445l.955-5.058a8.541 8.541 0 0 0 .178-1.604c.032-1.411-.68-2.238-1.959-2.238Z"/><path id="o_5_" fill-rule="evenodd" d="M192.043 124.218c0-2.967 1.959-5.626 4.905-5.626 2.298 0 3.318 1.67 3.302 3.437 0 3.032-1.942 5.625-4.84 5.625-2.202 0-3.367-1.54-3.367-3.436Zm2.525-.065c0 .891.34 1.605 1.182 1.605 1.295 0 2.023-2.302 2.023-3.826 0-.73-.275-1.475-1.149-1.475-1.327 0-2.056 2.285-2.056 3.696Z" clip-rule="evenodd"/><path id="p_5_" fill-rule="evenodd" d="M203.941 120.051s.939-1.459 2.59-1.459c1.797 0 2.525 1.476 2.525 3.113 0 2.983-1.878 5.933-4.759 5.933-.939 0-1.441-.324-1.441-.324h-.048l-.68 3.631h-2.444l1.699-8.948c.195-1.022.389-2.367.502-3.259h2.169l-.145 1.313h.032Zm-.745 5.399s.373.356 1.004.356c1.36 0 2.299-2.269 2.299-3.842 0-.648-.227-1.345-.972-1.345-.841 0-1.635 1.021-1.926 2.545l-.405 2.286Z" clip-rule="evenodd"/><path id="dot_5_" d="M212.553 115.075c-.777 0-1.408.616-1.408 1.426 0 .73.453 1.232 1.149 1.232h.032c.761 0 1.425-.519 1.441-1.426.016-.73-.47-1.232-1.214-1.232Z"/><path id="i_5_" d="M209.121 127.476h2.461l1.667-8.689h-2.477l-1.651 8.689Z"/><path id="f_5_" d="M219.464 118.771h-1.7l.081-.406c.146-.842.632-1.588 1.457-1.588.437 0 .777.129.777.129l.486-1.912s-.421-.211-1.328-.211c-.874 0-1.732.243-2.395.81-.842.714-1.231 1.735-1.425 2.772l-.065.406h-1.133l-.356 1.848h1.133l-1.295 6.857h2.445l1.295-6.857h1.683l.34-1.848Z"/><path id="y_5_" d="M225.356 118.787s-1.538 3.858-2.218 5.966h-.032c-.049-.681-.599-5.966-.599-5.966h-2.574l1.473 7.976c.033.178.016.292-.048.405a4.255 4.255 0 0 1-1.328 1.475c-.453.341-.971.551-1.376.697l.68 2.075c.502-.113 1.522-.518 2.396-1.329 1.117-1.054 2.153-2.659 3.205-4.863l2.995-6.436h-2.574Z"/><path id="Shape" fill-rule="evenodd" d="M167.761 113.146s-.227.064-.599.178a4.794 4.794 0 0 0-.291-.713c-.421-.811-1.053-1.249-1.797-1.249-.049 0-.097 0-.162.016a.157.157 0 0 0-.032-.04.133.133 0 0 1-.033-.041c-.324-.356-.744-.518-1.246-.502-.972.032-1.943.729-2.72 1.978-.55.875-.971 1.977-1.084 2.837-1.117.34-1.894.583-1.91.599-.567.179-.583.195-.648.73-.049.405-1.538 11.818-1.538 11.818l12.238 2.123v-17.751a.748.748 0 0 0-.134.012c-.018.002-.032.005-.044.005Zm-2.833.875c-.339.102-.696.213-1.06.326-.33.102-.665.206-.996.306.195-.762.583-1.524 1.036-2.026.178-.179.421-.389.696-.519.276.584.34 1.378.324 1.913Zm-.744-2.416a1.116 1.116 0 0 0-.583-.145c-1.49.032-2.801 2.383-3.157 3.939.534-.162 1.117-.34 1.699-.519h.001c.194-.989.664-2.026 1.279-2.691.243-.243.502-.454.761-.584Zm-2.461 8.771c.026.409.467.692 1.002 1.036.821.526 1.862 1.194 1.96 2.676.114 1.929-1.019 3.242-2.654 3.339-1.975.13-3.06-1.037-3.06-1.037l.421-1.783s1.085.827 1.959.762c.566-.033.777-.503.76-.827-.035-.598-.485-.917-.991-1.277-.648-.46-1.387-.985-1.469-2.241-.13-1.88 1.101-3.777 3.82-3.955 1.052-.065 1.587.194 1.587.194l-.615 2.335s-.697-.325-1.522-.26c-1.198.081-1.214.843-1.198 1.038Zm3.561-8.317c.227.584.292 1.281.292 1.767.356-.113.68-.21.971-.291-.162-.503-.518-1.33-1.263-1.476Z" clip-rule="evenodd"/><path id="Path" d="m168.311 130.848 5.082-1.264s-2.185-14.801-2.201-14.898a.189.189 0 0 0-.178-.163c-.081 0-1.506-.032-1.506-.032s-.874-.843-1.197-1.167v17.524Z"/></g><g id="Group 6"><rect id="Rectangle" width="69.074" height="19.638" x="249.357" y="112.286" fill="#fff" rx="9.817"/><g id="Group 5" clip-path="url(#clip1_5321_73657)"><path id="Connected" fill="#002E6E" d="M273.053 123.026c-.205.551-.575.912-1.257.912-.937 0-1.496-.83-1.496-1.948 0-1.126.559-1.947 1.496-1.947.682 0 1.052.353 1.257.895h1.217c-.222-1.175-1.069-1.997-2.474-1.997-1.562 0-2.745 1.25-2.745 3.049 0 1.8 1.183 3.05 2.745 3.05 1.397 0 2.252-.822 2.474-2.014h-1.217Zm3.872-2.474c-1.241 0-2.104.921-2.104 2.236 0 1.323.863 2.252 2.104 2.252 1.249 0 2.112-.929 2.112-2.252 0-1.315-.863-2.236-2.112-2.236Zm0 1.003c.6 0 .92.518.92 1.233 0 .723-.32 1.241-.92 1.241-.592 0-.921-.518-.921-1.241 0-.715.329-1.233.921-1.233Zm2.87 3.386h1.2v-2.729c.082-.361.411-.591.773-.591.477 0 .707.304.707.772v2.548h1.191v-2.803c0-.953-.558-1.586-1.52-1.586-.501 0-.921.214-1.151.485v-.386h-1.2v4.29Zm4.856 0h1.2v-2.729c.082-.361.411-.591.773-.591.476 0 .706.304.706.772v2.548h1.192v-2.803c0-.953-.559-1.586-1.52-1.586-.502 0-.921.214-1.151.485v-.386h-1.2v4.29Zm7.469-1.405c-.09.369-.394.534-.789.534-.534 0-.904-.378-.936-1.028h2.86v-.361c0-1.266-.691-2.129-1.948-2.129-1.2 0-2.071.945-2.071 2.244 0 1.331.846 2.244 2.095 2.244 1.069 0 1.751-.592 1.899-1.504h-1.11Zm-.024-1.209h-1.677c.107-.526.436-.813.896-.813.493 0 .756.361.781.813Zm4.46 1.159c-.057.329-.328.534-.698.534-.551 0-.896-.501-.896-1.232 0-.715.345-1.217.896-1.217.37 0 .641.198.698.526h1.176c-.124-.92-.806-1.545-1.882-1.545-1.217 0-2.072.912-2.072 2.236 0 1.339.855 2.252 2.072 2.252 1.076 0 1.758-.633 1.882-1.554h-1.176Zm2.203.156c0 .954.559 1.389 1.43 1.389.312 0 .6-.049.764-.139v-1.052a1.029 1.029 0 0 1-.517.139c-.305 0-.485-.148-.485-.493v-1.874h.937v-.961h-.937v-1.175h-1.192v1.175h-.649v.961h.649v2.03Zm5.641-.106c-.09.369-.394.534-.789.534-.534 0-.904-.378-.937-1.028h2.861v-.361c0-1.266-.691-2.129-1.948-2.129-1.2 0-2.071.945-2.071 2.244 0 1.331.846 2.244 2.095 2.244 1.069 0 1.751-.592 1.899-1.504h-1.11Zm-.024-1.209h-1.677c.107-.526.436-.813.896-.813.493 0 .756.361.781.813Zm4.723 1.176a.912.912 0 0 1-.813.493c-.65 0-1.036-.518-1.036-1.208 0-.683.386-1.2 1.036-1.2.345 0 .674.205.813.501v1.414Zm0 1.438h1.192v-6.254h-1.192v2.317c-.205-.238-.624-.452-1.085-.452-1.249 0-1.956 1.011-1.956 2.236 0 1.241.707 2.252 1.956 2.252.461 0 .88-.222 1.085-.452v.353Z"/><path id="Oval_2" stroke="#002E6E" stroke-width="1.305" d="M265.095 122.791a5.869 5.869 0 0 1-5.864 5.873 5.87 5.87 0 0 1-5.864-5.873 5.87 5.87 0 0 1 5.864-5.874 5.869 5.869 0 0 1 5.864 5.874Z"/><path id="Path 2 Copy 4" stroke="#002E6E" stroke-width="1.305" d="m262.089 120.619-3.221 3.803-2.569-2.052"/></g></g><path id="synced orders" fill="#002E6E" d="M159.888 190.576c.122.662.672 1.057 1.48 1.057.737 0 1.32-.399 1.32-1.09 0-.517-.32-.841-.898-.972l-.657-.155c-.179-.042-.282-.122-.282-.268 0-.183.169-.296.418-.296.291 0 .451.141.521.329h.865c-.094-.587-.559-1.033-1.391-1.033-.742 0-1.296.432-1.296 1.094 0 .573.376.831.874.935l.643.141c.216.051.324.122.324.282 0 .206-.188.324-.455.324-.278 0-.475-.113-.55-.348h-.916Zm4.926-1.057-.705-1.315h-.958l1.197 2.175v1.198h.888v-1.198l1.212-2.175h-.92l-.714 1.315Zm5.368-1.315h-.85v1.855l-1.306-1.855h-.822v3.373h.85v-1.973l1.414 1.973h.714v-3.373Zm3.04 2.236c-.089.254-.272.413-.582.413-.461 0-.728-.413-.728-.963 0-.559.267-.963.728-.963.31 0 .493.155.582.404h.879c-.123-.681-.616-1.183-1.461-1.183-.94 0-1.621.723-1.621 1.742 0 1.02.681 1.743 1.621 1.743.845 0 1.338-.503 1.461-1.193h-.879Zm1.715-2.236v3.373h2.415v-.766h-1.546v-.583h1.409v-.737h-1.409v-.531h1.546v-.756h-2.415Zm3.328 3.373h1.277c1.053 0 1.696-.658 1.696-1.687 0-1.028-.643-1.686-1.696-1.686h-1.277v3.373Zm.869-.766v-1.851h.361c.564 0 .874.357.874.93 0 .564-.31.921-.874.921h-.361Zm6.028-2.663c-.972 0-1.649.732-1.649 1.742 0 1.006.677 1.743 1.649 1.743s1.649-.737 1.649-1.743c0-1.01-.677-1.742-1.649-1.742Zm0 .775c.451 0 .756.385.756.967 0 .583-.305.968-.756.968-.456 0-.756-.385-.756-.968 0-.582.3-.967.756-.967Zm3.363.018h.554c.315 0 .461.165.461.414 0 .244-.146.404-.461.404h-.554v-.818Zm-.869 2.636h.869v-1.114h.315l.7 1.114h.977l-.789-1.208c.413-.159.671-.507.671-1.014 0-.738-.502-1.151-1.226-1.151h-1.517v3.373Zm3.621 0h1.278c1.052 0 1.696-.658 1.696-1.687 0-1.028-.644-1.686-1.696-1.686h-1.278v3.373Zm.869-.766v-1.851h.362c.564 0 .874.357.874.93 0 .564-.31.921-.874.921h-.362Zm2.945-2.607v3.373h2.415v-.766h-1.546v-.583h1.41v-.737h-1.41v-.531h1.546v-.756h-2.415Zm4.197.737h.554c.315 0 .461.165.461.414 0 .244-.146.404-.461.404h-.554v-.818Zm-.869 2.636h.869v-1.114h.315l.7 1.114h.977l-.789-1.208c.413-.159.671-.507.671-1.014 0-.738-.502-1.151-1.226-1.151h-1.517v3.373Zm3.442-1.001c.123.662.672 1.057 1.48 1.057.738 0 1.32-.399 1.32-1.09 0-.517-.319-.841-.897-.972l-.658-.155c-.178-.042-.282-.122-.282-.268 0-.183.17-.296.419-.296.291 0 .45.141.521.329h.864c-.094-.587-.559-1.033-1.39-1.033-.742 0-1.297.432-1.297 1.094 0 .573.376.831.874.935l.644.141c.216.051.324.122.324.282 0 .206-.188.324-.456.324-.277 0-.474-.113-.55-.348h-.916Z"/><path id="low stock" fill="#002E6E" d="M222.21 191.577h2.396v-.766h-1.513v-2.607h-.883v3.373Zm4.684-3.429c-.972 0-1.648.732-1.648 1.742 0 1.006.676 1.743 1.648 1.743.973 0 1.649-.737 1.649-1.743 0-1.01-.676-1.742-1.649-1.742Zm0 .775c.451 0 .757.385.757.967 0 .583-.306.968-.757.968-.455 0-.756-.385-.756-.968 0-.582.301-.967.756-.967Zm4.084-.719-.517 1.982-.474-1.982h-.902l.888 3.373h.803l.531-1.978.521 1.978h.808l.888-3.373h-.888l-.469 1.982-.517-1.982h-.672Zm4.685 2.372c.122.662.672 1.057 1.48 1.057.737 0 1.32-.399 1.32-1.09 0-.517-.32-.841-.897-.972l-.658-.155c-.178-.042-.282-.122-.282-.268 0-.183.169-.296.418-.296.291 0 .451.141.522.329h.864c-.094-.587-.559-1.033-1.39-1.033-.743 0-1.297.432-1.297 1.094 0 .573.376.831.874.935l.643.141c.216.051.324.122.324.282 0 .206-.187.324-.455.324-.277 0-.475-.113-.55-.348h-.916Zm3.453-1.616h1.043v2.617h.883v-2.617h1.043v-.756h-2.969v.756Zm5.187-.812c-.972 0-1.648.732-1.648 1.742 0 1.006.676 1.743 1.648 1.743.973 0 1.649-.737 1.649-1.743 0-1.01-.676-1.742-1.649-1.742Zm0 .775c.451 0 .757.385.757.967 0 .583-.306.968-.757.968-.455 0-.756-.385-.756-.968 0-.582.301-.967.756-.967Zm4.584 1.517c-.089.254-.272.413-.582.413-.461 0-.728-.413-.728-.963 0-.559.267-.963.728-.963.31 0 .493.155.582.404h.879c-.122-.681-.616-1.183-1.461-1.183-.94 0-1.621.723-1.621 1.742 0 1.02.681 1.743 1.621 1.743.845 0 1.339-.503 1.461-1.193h-.879Zm2.598-2.236h-.883v3.373h.883v-.94l.282-.357.85 1.297h1.043l-1.235-1.893 1.184-1.48h-1.034l-1.09 1.386v-1.386Z"/><path id="234" fill="#002E6E" d="M168.901 171.207c.078-1.076.704-1.918 1.879-1.918 1.115 0 1.8.705 1.8 1.683 0 1.057-.959 2.036-2.211 3.387l-4.443 4.677v1.919h9.727v-2.545h-5.676l2.721-2.897c1.448-1.526 2.779-2.877 2.779-4.658 0-2.525-1.761-4.189-4.697-4.189-2.76 0-4.639 1.938-4.913 4.541h3.034Zm11.906 3.739h.881c1.312 0 2.251.685 2.251 1.879 0 1.115-.861 1.879-2.055 1.879-1.39 0-2.153-.862-2.29-2.095h-2.877c.156 2.721 2.172 4.58 5.187 4.58 2.994 0 4.814-1.859 4.814-4.306 0-1.291-.626-2.505-1.937-3.073.998-.489 1.703-1.702 1.703-3.053 0-2.388-1.723-4.091-4.561-4.091-2.818 0-4.658 1.919-4.952 4.424h2.858c.078-1.096.763-1.938 2.035-1.938 1.175 0 1.86.764 1.86 1.742 0 1.175-.901 1.762-2.114 1.762h-.803v2.29Zm14.733-8.045h-2.878l-4.834 9.16v2.095h6.224v2.799h2.623v-2.799h2.133v-2.388h-2.133v-2.917h-2.623v2.917h-3.092l4.58-8.867Z"/><path id="2" fill="#002E6E" d="M235.899 171.207c.078-1.076.704-1.918 1.879-1.918 1.115 0 1.8.705 1.8 1.683 0 1.057-.959 2.036-2.211 3.387l-4.443 4.677v1.919h9.727v-2.545h-5.676l2.721-2.897c1.448-1.526 2.779-2.877 2.779-4.658 0-2.525-1.761-4.189-4.697-4.189-2.76 0-4.639 1.938-4.913 4.541h3.034Z"/><path id="stock updated" fill="#002E6E" d="M270.801 190.576c.122.662.672 1.057 1.48 1.057.737 0 1.32-.399 1.32-1.09 0-.517-.32-.841-.898-.972l-.657-.155c-.179-.042-.282-.122-.282-.268 0-.183.169-.296.418-.296.291 0 .451.141.521.329h.865c-.094-.587-.559-1.033-1.391-1.033-.742 0-1.296.432-1.296 1.094 0 .573.375.831.873.935l.644.141c.216.051.324.122.324.282 0 .206-.188.324-.456.324-.277 0-.474-.113-.549-.348h-.916Zm3.452-1.616h1.043v2.617h.883v-2.617h1.043v-.756h-2.969v.756Zm5.188-.812c-.972 0-1.649.732-1.649 1.742 0 1.006.677 1.743 1.649 1.743s1.649-.737 1.649-1.743c0-1.01-.677-1.742-1.649-1.742Zm0 .775c.451 0 .756.385.756.967 0 .583-.305.968-.756.968-.456 0-.756-.385-.756-.968 0-.582.3-.967.756-.967Zm4.584 1.517c-.089.254-.273.413-.583.413-.46 0-.728-.413-.728-.963 0-.559.268-.963.728-.963.31 0 .494.155.583.404h.878c-.122-.681-.615-1.183-1.461-1.183-.939 0-1.62.723-1.62 1.742 0 1.02.681 1.743 1.62 1.743.846 0 1.339-.503 1.461-1.193h-.878Zm2.598-2.236h-.883v3.373h.883v-.94l.282-.357.85 1.297h1.043l-1.235-1.893 1.183-1.48h-1.033l-1.09 1.386v-1.386Zm7.4 0h-.883v1.912c0 .484-.221.728-.587.728-.367 0-.587-.244-.587-.728v-1.912h-.884v1.996c0 .93.578 1.433 1.471 1.433.892 0 1.47-.503 1.47-1.433v-1.996Zm1.803 2.325h.611c.728 0 1.226-.413 1.226-1.16 0-.756-.498-1.165-1.226-1.165h-1.48v3.373h.869v-1.048Zm0-.742v-.846h.517c.319 0 .46.169.46.428 0 .249-.141.418-.46.418h-.517Zm2.688 1.79h1.278c1.052 0 1.695-.658 1.695-1.687 0-1.028-.643-1.686-1.695-1.686h-1.278v3.373Zm.869-.766v-1.851h.362c.563 0 .873.357.873.93 0 .564-.31.921-.873.921h-.362Zm4.292-1.564.348.949h-.695l.347-.949Zm.855 2.33h.893l-1.283-3.373h-.902l-1.287 3.373h.874l.239-.653h1.227l.239.653Zm1.2-2.617h1.043v2.617h.883v-2.617h1.043v-.756h-2.969v.756Zm3.799-.756v3.373h2.415v-.766h-1.546v-.583h1.409v-.737h-1.409v-.531h1.546v-.756h-2.415Zm3.328 3.373h1.277c1.053 0 1.696-.658 1.696-1.687 0-1.028-.643-1.686-1.696-1.686h-1.277v3.373Zm.869-.766v-1.851h.362c.563 0 .873.357.873.93 0 .564-.31.921-.873.921h-.362Z"/><path id="173" fill="#002E6E" d="M285.208 166.901h-1.84l-4.306 2.095v2.877l3.288-1.644v10.726h2.858v-14.054Zm11.28 2.095v-2.095h-9.513v2.545h6.459l-4.501 11.509h2.936l4.619-11.959Zm4.973 5.95h.881c1.311 0 2.251.685 2.251 1.879 0 1.115-.862 1.879-2.056 1.879-1.389 0-2.153-.862-2.29-2.095h-2.877c.157 2.721 2.173 4.58 5.187 4.58 2.995 0 4.815-1.859 4.815-4.306 0-1.291-.626-2.505-1.938-3.073.998-.489 1.703-1.702 1.703-3.053 0-2.388-1.722-4.091-4.56-4.091-2.819 0-4.659 1.919-4.952 4.424h2.857c.079-1.096.764-1.938 2.036-1.938 1.174 0 1.859.764 1.859 1.742 0 1.175-.9 1.762-2.114 1.762h-.802v2.29Z"/><ellipse id="Oval Copy 3" cx="254.946" cy="266.244" stroke="#4D99FF" stroke-width="1.566" rx="5.005" ry="5.012"/><path id="Line 2 Copy" stroke="#4D99FF" stroke-width="1.566" d="m255.051 260.971-.042-33.951"/><g id="Group 6 Copy" clip-path="url(#clip2_5321_73657)"><rect id="Rectangle_2" width="62.557" height="21.82" x="223.457" y="203.152" fill="#4D99FF" rx="10.908"/><path id="547 orders" fill="#fff" d="M233.683 214.772c.21-.238.53-.448.94-.448.631 0 1.005.466 1.005 1.078 0 .63-.384 1.077-.977 1.077-.639 0-.986-.392-1.059-.968h-1.334c.101 1.297 1.005 2.137 2.384 2.137 1.333 0 2.255-.913 2.255-2.246 0-1.306-.831-2.201-2.109-2.201-.466 0-.859.155-1.069.301v-1.342h2.74v-1.178h-3.845v3.79h1.069Zm7.336-3.79h-1.343l-2.255 4.274v.977h2.904v1.306h1.223v-1.306h.996v-1.114h-.996v-1.361h-1.223v1.361h-1.443l2.137-4.137Zm6.136.977v-.977h-4.438v1.187h3.013l-2.1 5.37H245l2.155-5.58Zm5.152.703c-1.379 0-2.338 1.023-2.338 2.484 0 1.47.959 2.502 2.338 2.502 1.388 0 2.347-1.032 2.347-2.502 0-1.461-.959-2.484-2.347-2.484Zm0 1.114c.667 0 1.023.576 1.023 1.37 0 .804-.356 1.379-1.023 1.379-.658 0-1.023-.575-1.023-1.379 0-.794.365-1.37 1.023-1.37Zm6.084-1.031c-.073-.046-.274-.083-.502-.083-.466 0-.868.229-1.059.567v-.457h-1.334v4.767h1.334v-2.959c.091-.438.456-.667.904-.667.237 0 .484.046.657.156v-1.324Zm3.821 3.196a1.014 1.014 0 0 1-.904.548c-.721 0-1.15-.576-1.15-1.343 0-.758.429-1.333 1.15-1.333.384 0 .749.228.904.557v1.571Zm0 1.598h1.324v-6.95h-1.324v2.576c-.228-.265-.694-.503-1.205-.503-1.388 0-2.173 1.124-2.173 2.484 0 1.379.785 2.502 2.173 2.502.511 0 .977-.246 1.205-.502v.393Zm5.383-1.562c-.101.411-.439.594-.877.594-.594 0-1.005-.42-1.041-1.142h3.178v-.402c0-1.406-.767-2.365-2.164-2.365-1.334 0-2.302 1.05-2.302 2.493 0 1.48.941 2.493 2.329 2.493 1.187 0 1.945-.657 2.109-1.671h-1.232Zm-.028-1.342h-1.863c.119-.585.484-.904.996-.904.548 0 .84.402.867.904Zm5.021-1.89c-.073-.046-.274-.083-.502-.083-.466 0-.867.229-1.059.567v-.457h-1.333v4.767h1.333v-2.959c.091-.438.456-.667.904-.667.237 0 .484.046.657.156v-1.324Zm.514 3.378c.137.968.968 1.525 2.118 1.525 1.115 0 1.964-.575 1.964-1.552 0-.721-.439-1.187-1.279-1.388l-.986-.228c-.283-.073-.411-.183-.411-.366 0-.31.311-.447.63-.447.439 0 .667.192.731.466h1.269c-.146-.904-.822-1.471-2.018-1.471-1.078 0-1.909.612-1.909 1.544 0 .803.512 1.187 1.242 1.342l.968.219c.329.073.475.192.475.411 0 .311-.274.466-.676.466-.392 0-.703-.183-.794-.521h-1.324Z"/></g></g><g id="Group 16 Copy" clip-path="url(#clip3_5321_73657)"><g id="Group 4 Copy + JAN + FEB Copy + MAR Copy + APR Copy + MAY Copy + JUN Copy Mask_2"><path id="Mask_6" fill="#fff" d="M143.383 388.625h188.923v140.961c0 8.648-7.01 15.659-15.658 15.659H159.041c-8.648 0-15.658-7.011-15.658-15.659V388.625Z"/><mask id="mask2_5321_73657" width="190" height="158" x="143" y="388" maskUnits="userSpaceOnUse" style="mask-type:luminance"><path id="Mask_7" fill="#fff" d="M143.383 388.625h188.923v140.961c0 8.648-7.01 15.659-15.658 15.659H159.041c-8.648 0-15.658-7.011-15.658-15.659V388.625Z"/></mask></g><path id="Rectangle Copy 15_2" fill="#002E6E" d="M143.227 347.587c0-8.648 7.01-15.659 15.658-15.659h157.607c8.647 0 15.658 7.011 15.658 15.659v41.351H143.227v-41.351Z"/><g id="Amazon_logo Copy" fill="#fff" fill-rule="evenodd" clip-rule="evenodd"><path id="path8" d="M193.912 368.026c-3.586 2.646-8.783 4.058-13.257 4.058-6.274 0-11.923-2.323-16.196-6.189-.336-.304-.035-.718.368-.481 4.612 2.687 10.314 4.303 16.204 4.303 3.972 0 8.342-.823 12.36-2.531.607-.258 1.115.399.521.84Z"/><path id="path10" d="M195.402 366.318c-.456-.587-3.029-.277-4.184-.14-.352.043-.406-.264-.089-.484 2.05-1.445 5.412-1.028 5.804-.544.392.487-.102 3.863-2.027 5.474-.296.247-.578.116-.446-.213.432-1.081 1.402-3.504.942-4.093Z"/><path id="path12" d="M191.299 355.497v-1.404c0-.213.161-.355.354-.355h6.277a.35.35 0 0 1 .363.355v1.202c-.003.202-.172.466-.473.882l-3.253 4.651c1.209-.03 2.485.151 3.581.769.247.14.314.345.333.546v1.498c0 .205-.226.444-.462.32-1.932-1.014-4.497-1.124-6.632.011-.217.119-.446-.118-.446-.323v-1.422c0-.229.003-.619.231-.966l3.769-5.412h-3.28c-.201 0-.362-.142-.362-.352Z"/><path id="path14" d="M168.401 364.257h-1.91a.36.36 0 0 1-.341-.325v-9.815c0-.196.164-.352.368-.352h1.781a.36.36 0 0 1 .347.328v1.283h.034c.465-1.24 1.338-1.818 2.514-1.818 1.196 0 1.942.578 2.479 1.818.462-1.24 1.513-1.818 2.638-1.818.8 0 1.676.33 2.21 1.073.605.826.481 2.025.481 3.077l-.003 6.194a.36.36 0 0 1-.368.355h-1.906a.362.362 0 0 1-.344-.355V358.7c0-.414.037-1.447-.054-1.839-.142-.659-.569-.845-1.123-.845-.462 0-.945.309-1.141.804-.196.495-.177 1.324-.177 1.88v5.202a.36.36 0 0 1-.368.355h-1.907a.36.36 0 0 1-.344-.355l-.003-5.202c0-1.094.18-2.705-1.176-2.705-1.373 0-1.319 1.57-1.319 2.705v5.202a.36.36 0 0 1-.368.355"/><path id="path16" d="M203.696 353.558c2.833 0 4.367 2.437 4.367 5.535 0 2.994-1.695 5.369-4.367 5.369-2.783 0-4.298-2.437-4.298-5.474 0-3.055 1.534-5.43 4.298-5.43Zm.016 2.003c-1.407 0-1.496 1.921-1.496 3.118 0 1.199-.019 3.76 1.48 3.76 1.48 0 1.55-2.066 1.55-3.324 0-.829-.035-1.819-.285-2.604-.215-.683-.642-.95-1.249-.95Z"/><path id="path18" d="M211.736 364.257h-1.901a.362.362 0 0 1-.344-.355l-.003-9.817a.362.362 0 0 1 .368-.32h1.77a.364.364 0 0 1 .341.274v1.501h.035c.535-1.342 1.284-1.982 2.603-1.982.857 0 1.692.309 2.229 1.156.5.786.5 2.106.5 3.056v6.178a.367.367 0 0 1-.368.309h-1.915a.361.361 0 0 1-.339-.309v-5.331c0-1.073.124-2.644-1.195-2.644-.465 0-.892.312-1.104.785-.268.6-.303 1.197-.303 1.859v5.285a.368.368 0 0 1-.374.355"/><path id="path28" d="M186.295 359.569c0 .745.019 1.367-.357 2.028-.304.538-.787.869-1.322.869-.733 0-1.163-.559-1.163-1.385 0-1.63 1.459-1.926 2.842-1.926v.414Zm1.926 4.661a.4.4 0 0 1-.452.046c-.634-.527-.749-.772-1.096-1.275-1.047 1.071-1.791 1.391-3.147 1.391-1.609 0-2.858-.993-2.858-2.98 0-1.552.838-2.609 2.036-3.126 1.037-.457 2.484-.538 3.591-.664v-.248c0-.454.035-.992-.234-1.385-.231-.352-.677-.497-1.072-.497-.727 0-1.375.373-1.533 1.148-.032.172-.159.342-.333.35l-1.851-.199c-.155-.035-.33-.162-.284-.401.424-2.249 2.454-2.926 4.27-2.926.929 0 2.143.247 2.877.952.929.868.84 2.028.84 3.289v2.98c0 .896.371 1.289.72 1.773.121.172.148.379-.008.508a86.91 86.91 0 0 0-1.464 1.27l-.002-.006"/><path id="path30" d="M161.26 359.569c0 .745.018 1.367-.358 2.028-.303.538-.784.869-1.321.869-.733 0-1.16-.559-1.16-1.385 0-1.63 1.458-1.926 2.839-1.926v.414Zm1.925 4.661a.398.398 0 0 1-.451.046c-.634-.527-.747-.772-1.096-1.275-1.047 1.071-1.788 1.391-3.147 1.391-1.607 0-2.858-.993-2.858-2.98 0-1.552.84-2.609 2.036-3.126 1.036-.457 2.484-.538 3.591-.664v-.248c0-.454.035-.992-.231-1.385-.234-.352-.68-.497-1.072-.497-.728 0-1.378.373-1.536 1.148-.033.172-.159.342-.331.35l-1.853-.199c-.156-.035-.328-.162-.285-.401.427-2.249 2.455-2.926 4.271-2.926.929 0 2.143.247 2.876.952.93.868.841 2.028.841 3.289v2.98c0 .896.371 1.289.72 1.773.123.172.15.379-.005.508-.39.326-1.083.931-1.464 1.27l-.006-.006"/></g><g id="Group 6_2"><rect id="Rectangle_3" width="69.074" height="19.638" x="249.6" y="350.697" fill="#fff" rx="9.817"/><g id="Group 5_2" clip-path="url(#clip4_5321_73657)"><path id="Connected_2" fill="#002E6E" d="M273.296 361.436c-.206.551-.576.912-1.258.912-.937 0-1.496-.83-1.496-1.947 0-1.126.559-1.948 1.496-1.948.682 0 1.052.353 1.258.896h1.216c-.222-1.176-1.068-1.998-2.474-1.998-1.561 0-2.745 1.25-2.745 3.05 0 1.799 1.184 3.049 2.745 3.049 1.397 0 2.252-.822 2.474-2.014h-1.216Zm3.871-2.474c-1.241 0-2.104.921-2.104 2.236 0 1.323.863 2.252 2.104 2.252 1.249 0 2.112-.929 2.112-2.252 0-1.315-.863-2.236-2.112-2.236Zm0 1.003c.6 0 .921.518.921 1.233 0 .723-.321 1.241-.921 1.241-.592 0-.92-.518-.92-1.241 0-.715.328-1.233.92-1.233Zm2.871 3.386h1.199v-2.729c.083-.361.411-.591.773-.591.477 0 .707.304.707.772v2.548h1.192v-2.802c0-.954-.559-1.587-1.521-1.587-.501 0-.92.214-1.151.485v-.386h-1.199v4.29Zm4.855 0h1.2v-2.729c.082-.361.411-.591.773-.591.477 0 .707.304.707.772v2.548h1.191v-2.802c0-.954-.559-1.587-1.52-1.587-.501 0-.921.214-1.151.485v-.386h-1.2v4.29Zm7.47-1.405c-.091.37-.395.534-.789.534-.535 0-.904-.378-.937-1.027h2.86v-.362c0-1.266-.691-2.129-1.948-2.129-1.2 0-2.071.945-2.071 2.244 0 1.331.846 2.244 2.096 2.244 1.068 0 1.75-.592 1.898-1.504h-1.109Zm-.025-1.208h-1.677c.107-.526.436-.814.896-.814.493 0 .756.362.781.814Zm4.461 1.158c-.058.329-.329.535-.699.535-.551 0-.896-.502-.896-1.233 0-.715.345-1.217.896-1.217.37 0 .641.198.699.526h1.175c-.123-.92-.806-1.545-1.882-1.545-1.217 0-2.071.913-2.071 2.236 0 1.339.854 2.252 2.071 2.252 1.076 0 1.759-.633 1.882-1.554h-1.175Zm2.202.157c0 .953.559 1.388 1.43 1.388.312 0 .6-.049.765-.139v-1.052a1.036 1.036 0 0 1-.518.139c-.304 0-.485-.147-.485-.493v-1.873h.937v-.962h-.937v-1.175h-1.192v1.175h-.649v.962h.649v2.03Zm5.642-.107c-.091.37-.395.534-.789.534-.535 0-.905-.378-.937-1.027h2.86v-.362c0-1.266-.691-2.129-1.948-2.129-1.2 0-2.071.945-2.071 2.244 0 1.331.846 2.244 2.096 2.244 1.068 0 1.75-.592 1.898-1.504h-1.109Zm-.025-1.208h-1.677c.107-.526.436-.814.896-.814.493 0 .756.362.781.814Zm4.723 1.175a.912.912 0 0 1-.813.493c-.649 0-1.036-.518-1.036-1.208 0-.682.387-1.2 1.036-1.2.345 0 .674.205.813.501v1.414Zm0 1.438h1.192v-6.254h-1.192v2.317c-.205-.238-.624-.452-1.084-.452-1.25 0-1.956 1.011-1.956 2.236 0 1.241.706 2.252 1.956 2.252.46 0 .879-.222 1.084-.452v.353Z"/><path id="Oval_3" stroke="#002E6E" stroke-width="1.305" d="M265.337 361.201a5.869 5.869 0 0 1-5.864 5.873 5.87 5.87 0 0 1-5.864-5.873 5.87 5.87 0 0 1 5.864-5.874 5.869 5.869 0 0 1 5.864 5.874Z"/><path id="Path 2 Copy 4_2" stroke="#002E6E" stroke-width="1.305" d="m262.332 359.03-3.222 3.802-2.569-2.051"/></g></g><path id="synced orders_2" fill="#002E6E" d="M160.13 428.986c.122.663.672 1.057 1.48 1.057.737 0 1.32-.399 1.32-1.09 0-.516-.32-.84-.897-.972l-.658-.155c-.179-.042-.282-.122-.282-.268 0-.183.169-.296.418-.296.291 0 .451.141.522.329h.864c-.094-.587-.559-1.033-1.391-1.033-.742 0-1.296.432-1.296 1.094 0 .573.376.832.874.935l.643.141c.216.052.324.122.324.282 0 .206-.188.324-.455.324-.277 0-.475-.113-.55-.348h-.916Zm4.926-1.057-.705-1.315h-.958l1.198 2.175v1.198h.887v-1.198l1.212-2.175h-.92l-.714 1.315Zm5.368-1.315h-.85v1.856l-1.306-1.856h-.822v3.373h.85v-1.973l1.414 1.973h.714v-3.373Zm3.04 2.236c-.089.254-.272.413-.582.413-.461 0-.728-.413-.728-.963 0-.559.267-.962.728-.962.31 0 .493.155.582.403h.879c-.122-.681-.616-1.183-1.461-1.183-.94 0-1.621.723-1.621 1.742 0 1.02.681 1.743 1.621 1.743.845 0 1.339-.502 1.461-1.193h-.879Zm1.715-2.236v3.373h2.415v-.766h-1.546v-.582h1.41v-.738h-1.41v-.531h1.546v-.756h-2.415Zm3.328 3.373h1.278c1.052 0 1.695-.658 1.695-1.687 0-1.028-.643-1.686-1.695-1.686h-1.278v3.373Zm.869-.766v-1.851h.362c.563 0 .873.357.873.93 0 .564-.31.921-.873.921h-.362Zm6.028-2.663c-.972 0-1.649.733-1.649 1.742 0 1.006.677 1.743 1.649 1.743.973 0 1.649-.737 1.649-1.743 0-1.009-.676-1.742-1.649-1.742Zm0 .775c.451 0 .756.385.756.967 0 .583-.305.968-.756.968-.455 0-.756-.385-.756-.968 0-.582.301-.967.756-.967Zm3.363.019h.555c.314 0 .46.164.46.413 0 .244-.146.404-.46.404h-.555v-.817Zm-.869 2.635h.869v-1.113h.315l.7 1.113h.977l-.789-1.207c.413-.16.672-.508.672-1.015 0-.738-.503-1.151-1.227-1.151h-1.517v3.373Zm3.621 0h1.278c1.052 0 1.696-.658 1.696-1.687 0-1.028-.644-1.686-1.696-1.686h-1.278v3.373Zm.87-.766v-1.851h.361c.564 0 .874.357.874.93 0 .564-.31.921-.874.921h-.361Zm2.944-2.607v3.373h2.415v-.766h-1.546v-.582h1.41v-.738h-1.41v-.531h1.546v-.756h-2.415Zm4.197.738h.554c.315 0 .461.164.461.413 0 .244-.146.404-.461.404h-.554v-.817Zm-.869 2.635h.869v-1.113h.315l.7 1.113h.977l-.789-1.207c.413-.16.671-.508.671-1.015 0-.738-.502-1.151-1.226-1.151h-1.517v3.373Zm3.443-1.001c.122.663.671 1.057 1.479 1.057.738 0 1.32-.399 1.32-1.09 0-.516-.319-.84-.897-.972l-.658-.155c-.178-.042-.281-.122-.281-.268 0-.183.169-.296.418-.296.291 0 .451.141.521.329h.864c-.093-.587-.559-1.033-1.39-1.033-.742 0-1.296.432-1.296 1.094 0 .573.375.832.873.935l.644.141c.216.052.324.122.324.282 0 .206-.188.324-.456.324-.277 0-.474-.113-.549-.348h-.916Z"/><path id="low stock_2" fill="#002E6E" d="M222.452 429.987h2.396v-.766h-1.513v-2.607h-.883v3.373Zm4.685-3.429c-.973 0-1.649.733-1.649 1.742 0 1.006.676 1.743 1.649 1.743.972 0 1.648-.737 1.648-1.743 0-1.009-.676-1.742-1.648-1.742Zm0 .775c.451 0 .756.385.756.967 0 .583-.305.968-.756.968-.456 0-.757-.385-.757-.968 0-.582.301-.967.757-.967Zm4.083-.719-.516 1.982-.475-1.982h-.902l.888 3.373h.803l.531-1.978.522 1.978h.808l.887-3.373h-.887l-.47 1.982-.517-1.982h-.672Zm4.685 2.372c.123.663.672 1.057 1.48 1.057.738 0 1.32-.399 1.32-1.09 0-.516-.319-.84-.897-.972l-.658-.155c-.178-.042-.282-.122-.282-.268 0-.183.169-.296.418-.296.292 0 .451.141.522.329h.864c-.094-.587-.559-1.033-1.39-1.033-.742 0-1.297.432-1.297 1.094 0 .573.376.832.874.935l.644.141c.216.052.324.122.324.282 0 .206-.188.324-.456.324-.277 0-.474-.113-.55-.348h-.916Zm3.453-1.616h1.043v2.617h.883v-2.617h1.043v-.756h-2.969v.756Zm5.188-.812c-.973 0-1.649.733-1.649 1.742 0 1.006.676 1.743 1.649 1.743.972 0 1.648-.737 1.648-1.743 0-1.009-.676-1.742-1.648-1.742Zm0 .775c.451 0 .756.385.756.967 0 .583-.305.968-.756.968-.456 0-.757-.385-.757-.968 0-.582.301-.967.757-.967Zm4.583 1.517c-.089.254-.272.413-.582.413-.46 0-.728-.413-.728-.963 0-.559.268-.962.728-.962.31 0 .493.155.582.403h.879c-.122-.681-.615-1.183-1.461-1.183-.939 0-1.621.723-1.621 1.742 0 1.02.682 1.743 1.621 1.743.846 0 1.339-.502 1.461-1.193h-.879Zm2.599-2.236h-.884v3.373h.884v-.94l.281-.357.851 1.297h1.042l-1.235-1.893 1.184-1.48h-1.034L251.728 428v-1.386Z"/><path id="34" fill="#002E6E" d="M175.478 413.356h.881c1.311 0 2.251.685 2.251 1.879 0 1.116-.862 1.879-2.056 1.879-1.389 0-2.153-.861-2.29-2.094h-2.877c.157 2.72 2.173 4.58 5.187 4.58 2.995 0 4.815-1.86 4.815-4.306 0-1.292-.626-2.506-1.938-3.073.998-.49 1.703-1.703 1.703-3.054 0-2.388-1.722-4.09-4.56-4.09-2.819 0-4.659 1.918-4.952 4.423h2.857c.079-1.096.764-1.938 2.036-1.938 1.174 0 1.859.764 1.859 1.742 0 1.175-.9 1.762-2.114 1.762h-.802v2.29Zm14.732-8.045h-2.877l-4.835 9.161v2.094h6.225v2.799h2.622v-2.799h2.134v-2.388h-2.134v-2.916h-2.622v2.916h-3.093l4.58-8.867Z"/><path id="0" fill="#002E6E" d="M243.597 412.338c0-4.286-2.211-7.261-5.519-7.261-3.308 0-5.539 2.975-5.539 7.261 0 4.287 2.231 7.262 5.539 7.262s5.519-2.975 5.519-7.262Zm-8.201 0c0-2.623.783-4.658 2.682-4.658 1.859 0 2.662 2.035 2.662 4.658s-.803 4.639-2.662 4.639c-1.899 0-2.682-2.016-2.682-4.639Z"/><path id="stock updated_2" fill="#002E6E" d="M271.043 428.986c.122.663.672 1.057 1.48 1.057.737 0 1.32-.399 1.32-1.09 0-.516-.32-.84-.897-.972l-.658-.155c-.179-.042-.282-.122-.282-.268 0-.183.169-.296.418-.296.291 0 .451.141.522.329h.864c-.094-.587-.559-1.033-1.391-1.033-.742 0-1.296.432-1.296 1.094 0 .573.376.832.874.935l.643.141c.216.052.324.122.324.282 0 .206-.188.324-.455.324-.278 0-.475-.113-.55-.348h-.916Zm3.453-1.616h1.042v2.617h.884v-2.617h1.042v-.756h-2.968v.756Zm5.187-.812c-.972 0-1.649.733-1.649 1.742 0 1.006.677 1.743 1.649 1.743.973 0 1.649-.737 1.649-1.743 0-1.009-.676-1.742-1.649-1.742Zm0 .775c.451 0 .757.385.757.967 0 .583-.306.968-.757.968-.455 0-.756-.385-.756-.968 0-.582.301-.967.756-.967Zm4.584 1.517c-.089.254-.272.413-.582.413-.461 0-.728-.413-.728-.963 0-.559.267-.962.728-.962.31 0 .493.155.582.403h.879c-.123-.681-.616-1.183-1.461-1.183-.94 0-1.621.723-1.621 1.742 0 1.02.681 1.743 1.621 1.743.845 0 1.338-.502 1.461-1.193h-.879Zm2.598-2.236h-.883v3.373h.883v-.94l.282-.357.85 1.297h1.043l-1.235-1.893 1.183-1.48h-1.033l-1.09 1.386v-1.386Zm7.4 0h-.883v1.912c0 .484-.221.728-.587.728-.367 0-.587-.244-.587-.728v-1.912h-.883v1.997c0 .93.577 1.432 1.47 1.432.892 0 1.47-.502 1.47-1.432v-1.997Zm1.803 2.325h.611c.728 0 1.226-.413 1.226-1.16 0-.756-.498-1.165-1.226-1.165h-1.48v3.373h.869v-1.048Zm0-.742v-.845h.517c.319 0 .46.169.46.427 0 .249-.141.418-.46.418h-.517Zm2.688 1.79h1.278c1.052 0 1.696-.658 1.696-1.687 0-1.028-.644-1.686-1.696-1.686h-1.278v3.373Zm.869-.766v-1.851h.362c.564 0 .874.357.874.93 0 .564-.31.921-.874.921h-.362Zm4.292-1.564.348.949h-.695l.347-.949Zm.855 2.33h.893l-1.283-3.373h-.902l-1.287 3.373h.874l.24-.653h1.226l.239.653Zm1.2-2.617h1.043v2.617h.883v-2.617h1.043v-.756h-2.969v.756Zm3.799-.756v3.373h2.415v-.766h-1.546v-.582h1.41v-.738h-1.41v-.531h1.546v-.756h-2.415Zm3.328 3.373h1.278c1.052 0 1.695-.658 1.695-1.687 0-1.028-.643-1.686-1.695-1.686h-1.278v3.373Zm.869-.766v-1.851h.362c.563 0 .873.357.873.93 0 .564-.31.921-.873.921h-.362Z"/><path id="5" fill="#002E6E" d="M291.662 413.434c.45-.509 1.135-.959 2.016-.959 1.35 0 2.153.998 2.153 2.31 0 1.35-.822 2.309-2.095 2.309-1.37 0-2.113-.841-2.27-2.074h-2.858c.216 2.779 2.153 4.58 5.109 4.58 2.857 0 4.834-1.958 4.834-4.815 0-2.799-1.781-4.717-4.521-4.717-.998 0-1.84.332-2.29.646v-2.878h5.872v-2.525h-8.24v8.123h2.29Z"/></g></g></g><g id="Group 19" clip-path="url(#clip5_5321_73657)"><rect id="Mask_8" width="203.311" height="309.759" x="355.229" y="93.518" fill="#fff" rx="15.658"/><g id="Group 10" clip-path="url(#clip6_5321_73657)"><path id="sales by channel" fill="#002E6E" d="M429.709 179.244c.261 1.413 1.433 2.255 3.157 2.255 1.573 0 2.816-.852 2.816-2.325 0-1.102-.681-1.794-1.914-2.074l-1.403-.331c-.381-.09-.601-.261-.601-.571 0-.391.361-.632.892-.632.621 0 .962.301 1.112.702h1.844c-.201-1.253-1.193-2.205-2.966-2.205-1.584 0-2.766.922-2.766 2.335 0 1.223.801 1.774 1.864 1.994l1.373.301c.461.11.691.261.691.601 0 .441-.401.692-.972.692-.591 0-1.012-.241-1.172-.742h-1.955Zm10.864-2.836.741 2.024h-1.483l.742-2.024Zm1.824 4.971h1.904l-2.736-7.196h-1.924l-2.746 7.196h1.864l.511-1.393h2.616l.511 1.393Zm3.536 0h5.111v-1.634h-3.227v-5.562h-1.884v7.196Zm6.981-7.196v7.196h5.151v-1.634h-3.297v-1.242h3.007v-1.574h-3.007v-1.132h3.297v-1.614h-5.151Zm6.699 5.061c.26 1.413 1.433 2.255 3.156 2.255 1.574 0 2.816-.852 2.816-2.325 0-1.102-.681-1.794-1.914-2.074l-1.403-.331c-.38-.09-.601-.261-.601-.571 0-.391.361-.632.892-.632.621 0 .962.301 1.112.702h1.844c-.2-1.253-1.192-2.205-2.966-2.205-1.583 0-2.766.922-2.766 2.335 0 1.223.802 1.774 1.864 1.994l1.373.301c.461.11.691.261.691.601 0 .441-.4.692-.972.692-.591 0-1.012-.241-1.172-.742h-1.954Zm11.124 2.135h3.297c1.504 0 2.396-.712 2.396-2.025 0-.801-.491-1.473-1.173-1.693.531-.191.962-.752.962-1.523 0-1.293-.892-1.955-2.395-1.955h-3.087v7.196Zm1.794-4.34v-1.312h1.083c.541 0 .841.2.841.641s-.3.671-.841.671h-1.083Zm0 1.393h1.263c.531 0 .832.271.832.702 0 .411-.301.691-.832.691h-1.263v-1.393Zm8.529-1.443-1.503-2.806h-2.045l2.556 4.64v2.556h1.894v-2.556l2.585-4.64h-1.964l-1.523 2.806Zm-46.622 13.965c-.19.541-.581.881-1.242.881-.982 0-1.554-.881-1.554-2.054 0-1.193.572-2.054 1.554-2.054.661 0 1.052.33 1.242.861h1.874c-.26-1.453-1.312-2.525-3.116-2.525-2.005 0-3.458 1.543-3.458 3.718s1.453 3.718 3.458 3.718c1.804 0 2.856-1.072 3.116-2.545h-1.874Zm8.319-4.771v2.726h-2.776v-2.726h-1.884v7.196h1.884v-2.856h2.776v2.856h1.884v-7.196h-1.884Zm7.182 2.225.742 2.024h-1.483l.741-2.024Zm1.824 4.971h1.904l-2.735-7.196h-1.925l-2.745 7.196h1.864l.511-1.393h2.615l.511 1.393Zm9.89-7.196h-1.814v3.959l-2.786-3.959h-1.754v7.196h1.814v-4.209l3.017 4.209h1.523v-7.196Zm8.43 0h-1.814v3.959l-2.786-3.959h-1.754v7.196h1.814v-4.209l3.017 4.209h1.523v-7.196Zm2.076 0v7.196h5.151v-1.634h-3.297v-1.242h3.007v-1.574h-3.007v-1.132h3.297v-1.614h-5.151Zm7.099 7.196h5.111v-1.634h-3.227v-5.562h-1.884v7.196Z"/><path id="Oval Copy 7" stroke="#4D99FF" stroke-linecap="round" stroke-width="16.702" d="M404.535 173.736c-5.12 29.05 14.267 56.753 43.301 61.875"/><path id="Oval Copy 8" stroke="#4D99FF" stroke-linecap="round" stroke-width="16.702" d="M408.953 206.076c7.192 14.998 21.261 26.426 38.883 29.535"/><path id="Oval Copy 6" stroke="#05CBBF" stroke-linecap="round" stroke-linejoin="round" stroke-width="16.702" d="M443.227 234.598a53.52 53.52 0 0 0 12.016 1.792c29.464 1.03 54.183-22.035 55.212-51.515"/><path id="Oval Copy 4" stroke="#002E6E" stroke-linecap="round" stroke-linejoin="round" stroke-width="16.702" d="M503.165 210.031a53.63 53.63 0 0 0 1.924-3.601c7.639-15.706 7.435-34.841-2.226-50.929-5.359-8.924-12.911-15.717-21.552-20.104"/><path id="Oval_4" stroke="#002E6E" stroke-linecap="round" stroke-linejoin="round" stroke-width="16.702" d="M492.826 143.317c-8.867-7.988-19.673-12.453-30.704-13.486-16.228-1.519-32.943 4.389-44.686 17.44a53.177 53.177 0 0 0-13.28 28.919"/><path id="Oval Copy 9" stroke="#4D99FF" stroke-linecap="round" stroke-width="16.702" d="M404.534 173.736a53.904 53.904 0 0 0-.816 8.714"/><g id="Group 4"><rect id="Rectangle Copy 21" width="58.721" height="28.126" x="455.84" y="115.271" fill="#002E6E" stroke="#fff" stroke-width="1.67" rx="14.063"/><g id="Amazon_logo Copy_2" fill="#fff" fill-rule="evenodd" clip-rule="evenodd"><path id="path8_2" d="M489.518 133.98c-2.213 1.632-5.421 2.503-8.183 2.503-3.873 0-7.36-1.433-9.998-3.817-.207-.188-.021-.443.228-.297 2.846 1.657 6.366 2.654 10.002 2.654 2.452 0 5.149-.508 7.63-1.561.374-.159.688.246.321.518Z"/><path id="path10_2" d="M490.437 132.926c-.282-.361-1.87-.171-2.583-.086-.217.027-.251-.163-.055-.299 1.265-.89 3.341-.633 3.583-.335.242.301-.063 2.382-1.252 3.376-.182.153-.356.071-.275-.131.267-.667.865-2.161.582-2.525Z"/><path id="path12_2" d="M487.904 126.253v-.866c0-.131.1-.219.219-.219h3.875c.124 0 .223.089.223.219v.741c-.001.125-.106.287-.291.544l-2.008 2.869c.746-.019 1.533.092 2.21.474.152.086.194.212.205.337v.924c0 .126-.139.273-.285.197-1.192-.625-2.775-.693-4.093.007-.134.073-.275-.073-.275-.199v-.878c0-.141.001-.381.142-.595l2.326-3.338h-2.024c-.124 0-.224-.088-.224-.217Z"/><path id="path14_2" d="M473.77 131.656h-1.179a.223.223 0 0 1-.21-.201v-6.053c0-.121.101-.218.227-.218h1.099a.222.222 0 0 1 .214.203v.791h.022c.286-.765.825-1.121 1.551-1.121.738 0 1.199.356 1.531 1.121.285-.765.933-1.121 1.628-1.121.494 0 1.034.204 1.364.662.373.509.297 1.249.297 1.897l-.002 3.821a.223.223 0 0 1-.227.219h-1.177a.224.224 0 0 1-.212-.219v-3.209c0-.255.023-.892-.033-1.134-.088-.407-.352-.521-.693-.521a.784.784 0 0 0-.705.496c-.121.305-.109.816-.109 1.159v3.209a.223.223 0 0 1-.227.219h-1.178a.224.224 0 0 1-.212-.219l-.001-3.209c0-.675.111-1.668-.727-1.668-.847 0-.814.968-.814 1.668v3.209a.223.223 0 0 1-.227.219"/><path id="path16_2" d="M495.557 125.057c1.749 0 2.696 1.503 2.696 3.414 0 1.846-1.046 3.311-2.696 3.311-1.718 0-2.653-1.503-2.653-3.376 0-1.885.947-3.349 2.653-3.349Zm.01 1.235c-.869 0-.924 1.185-.924 1.923 0 .74-.011 2.319.914 2.319.913 0 .957-1.274.957-2.05 0-.511-.022-1.122-.176-1.606-.133-.421-.396-.586-.771-.586Z"/><path id="path18_2" d="M500.52 131.656h-1.173a.225.225 0 0 1-.213-.219l-.001-6.055a.224.224 0 0 1 .227-.198h1.093a.226.226 0 0 1 .21.17v.925h.022c.33-.828.792-1.222 1.606-1.222.529 0 1.045.19 1.376.713.309.484.309 1.299.309 1.884v3.811a.228.228 0 0 1-.228.191h-1.182a.225.225 0 0 1-.209-.191v-3.288c0-.662.077-1.631-.737-1.631-.287 0-.551.193-.682.485-.166.37-.187.738-.187 1.146v3.26a.228.228 0 0 1-.231.219"/><path id="path28_2" d="M484.815 128.764c0 .46.012.843-.22 1.251-.188.332-.486.536-.816.536-.453 0-.718-.345-.718-.855 0-1.005.9-1.187 1.754-1.187v.255Zm1.189 2.875a.245.245 0 0 1-.279.028c-.391-.325-.462-.476-.676-.786-.647.66-1.106.858-1.943.858-.993 0-1.764-.613-1.764-1.839 0-.957.517-1.609 1.257-1.927.639-.282 1.533-.332 2.216-.41v-.152c0-.281.022-.613-.144-.855-.143-.217-.418-.307-.662-.307-.449 0-.848.231-.946.709-.02.106-.098.21-.206.215l-1.142-.122c-.096-.022-.204-.1-.176-.248.262-1.386 1.515-1.804 2.636-1.804.574 0 1.323.152 1.776.587.573.536.519 1.251.519 2.029v1.838c0 .552.229.794.444 1.093.075.106.091.234-.005.313-.24.201-.668.574-.903.783l-.002-.003"/><path id="path30_2" d="M469.362 128.764c0 .46.012.843-.22 1.251-.188.332-.485.536-.816.536-.453 0-.716-.345-.716-.855 0-1.005.9-1.187 1.752-1.187v.255Zm1.189 2.875a.245.245 0 0 1-.279.028c-.391-.325-.461-.476-.676-.786-.647.66-1.104.858-1.943.858-.992 0-1.764-.613-1.764-1.839 0-.957.519-1.609 1.256-1.927.64-.282 1.534-.332 2.217-.41v-.152c0-.281.022-.613-.143-.855-.144-.217-.419-.307-.661-.307-.449 0-.851.231-.948.709-.02.106-.098.21-.204.215l-1.144-.122c-.096-.022-.203-.1-.176-.248.264-1.386 1.515-1.804 2.636-1.804.574 0 1.323.152 1.776.587.573.536.519 1.251.519 2.029v1.838c0 .552.228.794.444 1.093.076.106.093.234-.003.313-.241.201-.669.574-.904.783l-.003-.003"/></g></g><g id="Group 9"><rect id="Rectangle Copy 8" width="64.059" height="28.126" x="369.998" y="200.119" fill="#4D99FF" stroke="#fff" stroke-width="1.67" rx="14.063"/><g id="shopify_monotone_white copy 2" fill="#fff"><path id="s_5__2" d="M395.313 214.295c-.359-.198-.547-.359-.547-.585 0-.293.254-.472.66-.472.472 0 .887.198.887.198l.33-1.01s-.302-.236-1.198-.236c-1.245 0-2.113.717-2.113 1.718 0 .566.405 1 .943 1.312.434.245.585.424.585.679 0 .274-.217.491-.623.491-.603 0-1.169-.311-1.169-.311l-.349 1.009s.528.35 1.405.35c1.283 0 2.198-.633 2.198-1.765.019-.623-.453-1.057-1.009-1.378Z"/><path id="h_5__2" d="M400.426 212.171c-.632 0-1.122.302-1.509.755l-.019-.009.547-2.869h-1.433l-1.387 7.295h1.424l.472-2.491c.189-.944.67-1.52 1.123-1.52.32 0 .443.217.443.529 0 .198-.019.434-.066.632l-.538 2.86h1.424l.557-2.945c.066-.311.104-.68.104-.934.019-.821-.396-1.303-1.142-1.303Z"/><path id="o_5__2" fill-rule="evenodd" d="M401.953 215.446c0-1.727 1.141-3.275 2.858-3.275 1.34 0 1.934.972 1.925 2.001 0 1.765-1.132 3.275-2.821 3.275-1.283 0-1.962-.897-1.962-2.001Zm1.472-.038c0 .52.198.935.688.935.755 0 1.179-1.34 1.179-2.228 0-.424-.16-.858-.669-.858-.774 0-1.198 1.33-1.198 2.151Z" clip-rule="evenodd"/><path id="p_5__2" fill-rule="evenodd" d="M408.887 213.021s.547-.85 1.509-.85c1.047 0 1.472.859 1.472 1.812 0 1.737-1.094 3.455-2.773 3.455-.548 0-.84-.189-.84-.189h-.028l-.396 2.114h-1.425l.991-5.21c.113-.594.226-1.378.292-1.897h1.264l-.085.765h.019Zm-.434 3.143s.217.207.585.207c.792 0 1.339-1.321 1.339-2.237 0-.377-.132-.783-.566-.783-.49 0-.952.595-1.122 1.482l-.236 1.331Z" clip-rule="evenodd"/><path id="dot_5__2" d="M413.905 210.123a.818.818 0 0 0-.821.831c0 .424.264.717.67.717h.019c.443 0 .83-.302.839-.831.01-.424-.273-.717-.707-.717Z"/><path id="i_5__2" d="M411.906 217.343h1.434l.972-5.059h-1.444l-.962 5.059Z"/><path id="f_5__2" d="M417.932 212.275h-.99l.047-.236c.085-.491.368-.925.849-.925.255 0 .453.076.453.076l.283-1.114s-.246-.123-.774-.123c-.509 0-1.009.142-1.396.472-.49.415-.717 1.01-.83 1.614l-.038.236h-.66l-.207 1.076h.66l-.755 3.992h1.425l.754-3.992h.981l.198-1.076Z"/><path id="y_5__2" d="M421.366 212.284s-.896 2.247-1.292 3.474h-.019c-.028-.397-.349-3.474-.349-3.474h-1.5l.859 4.644c.018.104.009.17-.029.236-.17.321-.443.632-.773.859a3.06 3.06 0 0 1-.802.406l.396 1.208c.293-.066.887-.302 1.396-.774.651-.614 1.255-1.548 1.868-2.832l1.745-3.747h-1.5Z"/><path id="Shape_2" fill-rule="evenodd" d="M387.805 209s-.132.038-.349.104a2.83 2.83 0 0 0-.17-.415c-.245-.472-.613-.727-1.047-.727-.028 0-.057 0-.094.009-.005-.009-.012-.016-.019-.023a.897.897 0 0 0-.745-.317c-.566.019-1.132.425-1.585 1.152-.321.51-.566 1.151-.632 1.652-.651.198-1.104.339-1.113.349-.33.104-.34.113-.378.424-.028.236-.896 6.881-.896 6.881l7.132 1.236v-10.334a.468.468 0 0 0-.104.009Zm-1.651.51c-.198.059-.406.124-.618.189l-.58.179c.113-.444.34-.887.604-1.18.104-.104.245-.227.405-.302.161.34.198.802.189 1.114Zm-.434-1.407a.651.651 0 0 0-.339-.085c-.868.019-1.632 1.388-1.84 2.294l.991-.302c.113-.576.386-1.18.745-1.567a1.81 1.81 0 0 1 .443-.34Zm-1.434 5.106c.015.239.272.404.584.603.479.307 1.085.696 1.143 1.559.066 1.123-.595 1.887-1.547 1.944-1.151.075-1.783-.604-1.783-.604l.245-1.038s.632.481 1.141.443a.456.456 0 0 0 .444-.481c-.021-.348-.283-.534-.578-.743-.378-.268-.808-.574-.856-1.305-.076-1.095.641-2.199 2.226-2.303.613-.038.925.113.925.113l-.359 1.359s-.406-.188-.887-.151c-.698.048-.707.491-.698.604Zm2.076-4.841c.132.339.169.745.169 1.028.208-.066.397-.122.566-.17-.094-.292-.302-.773-.735-.858Z" clip-rule="evenodd"/><path id="Path_2" d="m388.125 219.306 2.962-.736-1.283-8.673a.11.11 0 0 0-.104-.095c-.047 0-.877-.019-.877-.019s-.509-.49-.698-.679v10.202Z"/></g></g><g id="Group 8"><rect id="Rectangle Copy 22" width="76.07" height="28.126" x="457.092" y="228.494" fill="#05CBBF" stroke="#fff" stroke-width="1.67" rx="14.063"/><g id="ico-square-white" fill="#fff"><path id="Fill-1" fill-rule="evenodd" d="M471.821 236.028h8.243c1.133 0 2.061.927 2.061 2.06v8.238c0 1.133-.928 2.06-2.061 2.06h-8.243a2.067 2.067 0 0 1-2.061-2.06v-8.238c0-1.133.928-2.06 2.061-2.06Zm8.056 9.456c0 .36-.295.654-.656.654h-6.558a.656.656 0 0 1-.655-.654v-6.554c0-.36.295-.655.655-.655h6.558c.361 0 .656.295.656.655v6.554Zm-2.248-1.967a.376.376 0 0 1-.374.375h-2.623a.375.375 0 0 1-.374-.375v-2.621c0-.206.168-.374.374-.374h2.623c.205 0 .374.168.374.374v2.621Z" clip-rule="evenodd"/><path id="Fill-2" d="M487.848 246.265a2.75 2.75 0 0 1-1.935-.778 2.278 2.278 0 0 1-.688-1.617h.742c0 .402.167.79.471 1.092.357.356.872.561 1.41.561h.006c1.036 0 1.878-.724 1.878-1.614 0-.668-.37-1.198-2.168-1.614-.732-.169-1.225-.395-1.554-.712-.349-.339-.52-.789-.52-1.378 0-1.162 1.042-2.108 2.324-2.108a2.46 2.46 0 0 1 1.63.595c.452.396.701.93.701 1.505h-.743c0-.749-.712-1.358-1.588-1.358-.858 0-1.582.626-1.582 1.366 0 .677.232 1.075 1.5 1.368 1.354.313 2.739.836 2.743 2.336 0 .638-.277 1.235-.78 1.68a2.764 2.764 0 0 1-1.84.676h-.007Z"/><path id="Fill-3" fill-rule="evenodd" d="M496.591 245.126v3.249h.718v-7.872h-.718v.984h-.021c-.482-.748-1.312-1.127-2.184-1.127-1.65 0-3.015 1.25-3.015 2.931 0 1.69 1.334 2.952 3.015 2.952.872 0 1.702-.379 2.184-1.117h.021Zm-4.501-1.804c0-1.323.963-2.316 2.296-2.316 1.272 0 2.246 1.055 2.246 2.305 0 1.25-.974 2.286-2.246 2.286-1.313 0-2.296-.963-2.296-2.275Z" clip-rule="evenodd"/><path id="Fill-4" fill-rule="evenodd" d="M509.815 245.126v.983h.717v-5.606h-.717v.984h-.021c-.481-.758-1.302-1.128-2.184-1.128-1.651 0-3.014 1.251-3.014 2.932 0 1.691 1.333 2.951 3.014 2.951.872 0 1.692-.379 2.184-1.116h.021Zm-4.501-1.804c0-1.323.964-2.316 2.296-2.316 1.272 0 2.245 1.055 2.245 2.305 0 1.25-.973 2.286-2.245 2.286-1.312 0-2.296-.964-2.296-2.275Z" clip-rule="evenodd"/><path id="Fill-5" d="M512.684 242.83v3.28h-.719v-5.607h.719v.81h.019c.308-.718.851-.903 1.579-.954v.76c-.984.081-1.598.706-1.598 1.711Z"/><path id="Fill-6" fill-rule="evenodd" d="M515.31 243.568h5.106c0-.037.003-.07.006-.104.003-.033.006-.066.006-.101 0-1.62-1.302-3.004-2.943-3.004-1.61 0-2.913 1.354-2.913 2.952a2.93 2.93 0 0 0 2.923 2.931 2.935 2.935 0 0 0 2.757-1.967h-.757c-.308.83-1.149 1.322-2.01 1.322-1.098 0-2.124-.922-2.175-2.029Zm0-.646c.174-1.097 1.066-1.917 2.185-1.917 1.128 0 2.009.82 2.194 1.917h-4.379Z" clip-rule="evenodd"/><path id="Fill-7" d="M502.878 246.116v-.876h-.02c-.33.691-1.061 1.01-1.804 1.01-.731 0-1.473-.257-1.937-.844-.401-.504-.494-1.184-.494-1.812v-3.11h.721v3.099c0 1.164.422 2.019 1.71 2.019.474 0 .845-.124 1.196-.454.494-.472.586-1.03.586-1.688v-2.976h.722v5.632h-.68Z"/></g></g></g><path id="Line Copy 3_2" stroke="#E9F3FF" stroke-linecap="square" stroke-width="2.088" d="m375.387 274.327 158.391-.261"/><path id="total sales" fill="#002E6E" d="M375.357 324.129h1.39v3.489h1.178v-3.489h1.39v-1.008h-3.958v1.008Zm6.917-1.083c-1.297 0-2.198.977-2.198 2.323 0 1.341.901 2.324 2.198 2.324 1.296 0 2.198-.983 2.198-2.324 0-1.346-.902-2.323-2.198-2.323Zm0 1.033c.601 0 1.008.514 1.008 1.29 0 .777-.407 1.291-1.008 1.291-.608 0-1.008-.514-1.008-1.291 0-.776.4-1.29 1.008-1.29Zm2.966.05h1.39v3.489h1.178v-3.489h1.39v-1.008h-3.958v1.008Zm6.66.382.463 1.265h-.927l.464-1.265Zm1.14 3.107h1.19l-1.71-4.497h-1.203l-1.716 4.497h1.165l.32-.871h1.634l.32.871Zm2.21 0h3.194v-1.021h-2.017v-3.476h-1.177v4.497Zm6.207-1.334c.163.883.896 1.409 1.973 1.409.983 0 1.76-.532 1.76-1.453 0-.689-.426-1.121-1.196-1.297l-.877-.206c-.238-.057-.376-.163-.376-.357 0-.245.226-.395.558-.395.388 0 .601.188.695.439h1.152c-.125-.783-.745-1.378-1.854-1.378-.989 0-1.728.576-1.728 1.459 0 .764.501 1.109 1.165 1.246l.858.188c.288.069.432.163.432.376 0 .276-.251.432-.608.432-.369 0-.632-.15-.732-.463h-1.222Zm6.79-1.773.463 1.265h-.927l.464-1.265Zm1.14 3.107h1.19l-1.71-4.497h-1.203l-1.716 4.497h1.165l.32-.871h1.634l.32.871Zm2.21 0h3.194v-1.021h-2.017v-3.476h-1.177v4.497Zm4.363-4.497v4.497h3.22v-1.021h-2.061v-.777h1.879v-.983h-1.879v-.708h2.061v-1.008h-3.22Zm4.187 3.163c.163.883.895 1.409 1.973 1.409.983 0 1.76-.532 1.76-1.453 0-.689-.426-1.121-1.197-1.297l-.877-.206c-.238-.057-.375-.163-.375-.357 0-.245.225-.395.557-.395.388 0 .601.188.695.439h1.153c-.125-.783-.746-1.378-1.854-1.378-.99 0-1.729.576-1.729 1.459 0 .764.501 1.109 1.165 1.246l.858.188c.288.069.432.163.432.376 0 .276-.25.432-.607.432-.37 0-.633-.15-.733-.463h-1.221Z" opacity=".4"/><path id="sales orders" fill="#002E6E" d="M479.562 326.284c.163.883.896 1.409 1.973 1.409.984 0 1.76-.532 1.76-1.453 0-.689-.426-1.121-1.196-1.297l-.877-.206c-.238-.057-.376-.163-.376-.357 0-.245.226-.395.558-.395.388 0 .601.188.695.439h1.152c-.125-.783-.745-1.378-1.854-1.378-.989 0-1.728.576-1.728 1.459 0 .764.501 1.109 1.165 1.246l.858.188c.288.069.432.163.432.376 0 .276-.251.432-.608.432-.369 0-.632-.15-.732-.463h-1.222Zm6.79-1.773.463 1.265h-.926l.463-1.265Zm1.14 3.107h1.19l-1.71-4.497h-1.202l-1.717 4.497h1.165l.32-.871h1.634l.32.871Zm2.21 0h3.194v-1.021h-2.017v-3.476h-1.177v4.497Zm4.363-4.497v4.497h3.22v-1.021h-2.061v-.777h1.879v-.983h-1.879v-.708h2.061v-1.008h-3.22Zm4.187 3.163c.163.883.896 1.409 1.973 1.409.983 0 1.76-.532 1.76-1.453 0-.689-.426-1.121-1.197-1.297l-.876-.206c-.238-.057-.376-.163-.376-.357 0-.245.225-.395.557-.395.389 0 .602.188.695.439h1.153c-.125-.783-.745-1.378-1.854-1.378-.99 0-1.729.576-1.729 1.459 0 .764.501 1.109 1.165 1.246l.858.188c.288.069.433.163.433.376 0 .276-.251.432-.608.432-.37 0-.633-.15-.733-.463h-1.221Zm8.97-3.238c-1.297 0-2.199.977-2.199 2.323 0 1.341.902 2.324 2.199 2.324 1.296 0 2.198-.983 2.198-2.324 0-1.346-.902-2.323-2.198-2.323Zm0 1.033c.601 0 1.008.514 1.008 1.29 0 .777-.407 1.291-1.008 1.291-.608 0-1.009-.514-1.009-1.291 0-.776.401-1.29 1.009-1.29Zm4.484.025h.739c.419 0 .614.219.614.551 0 .326-.195.539-.614.539h-.739v-1.09Zm-1.159 3.514h1.159v-1.485h.419l.934 1.485h1.302l-1.052-1.61c.551-.213.896-.676.896-1.353 0-.983-.67-1.534-1.635-1.534h-2.023v4.497Zm4.828 0h1.704c1.403 0 2.261-.877 2.261-2.249 0-1.371-.858-2.248-2.261-2.248h-1.704v4.497Zm1.159-1.021v-2.468h.482c.752 0 1.165.476 1.165 1.24 0 .752-.413 1.228-1.165 1.228h-.482Zm3.927-3.476v4.497h3.219v-1.021h-2.061v-.777h1.879v-.983h-1.879v-.708h2.061v-1.008h-3.219Zm5.595.983h.739c.42 0 .614.219.614.551 0 .326-.194.539-.614.539h-.739v-1.09Zm-1.158 3.514h1.158v-1.485h.42l.933 1.485h1.303l-1.052-1.61c.551-.213.895-.676.895-1.353 0-.983-.67-1.534-1.634-1.534h-2.023v4.497Zm4.59-1.334c.162.883.895 1.409 1.973 1.409.983 0 1.76-.532 1.76-1.453 0-.689-.426-1.121-1.197-1.297l-.877-.206c-.238-.057-.375-.163-.375-.357 0-.245.225-.395.557-.395.388 0 .601.188.695.439h1.153c-.126-.783-.746-1.378-1.854-1.378-.99 0-1.729.576-1.729 1.459 0 .764.501 1.109 1.165 1.246l.858.188c.288.069.432.163.432.376 0 .276-.25.432-.607.432-.37 0-.633-.15-.733-.463h-1.221Z" opacity=".4"/><path id="342" fill="#002E6E" d="M484.858 306.209h1.096c1.632 0 2.801.852 2.801 2.338 0 1.389-1.072 2.338-2.558 2.338-1.729 0-2.679-1.071-2.85-2.606h-3.58c.195 3.386 2.704 5.7 6.455 5.7 3.726 0 5.991-2.314 5.991-5.359 0-1.607-.779-3.118-2.411-3.824 1.242-.609 2.119-2.119 2.119-3.8 0-2.971-2.143-5.09-5.675-5.09-3.508 0-5.797 2.387-6.162 5.504h3.556c.097-1.364.95-2.411 2.533-2.411 1.461 0 2.314.95 2.314 2.168 0 1.461-1.121 2.192-2.631 2.192h-.998v2.85Zm18.333-10.011h-3.581l-6.016 11.399v2.606h7.746v3.484h3.264v-3.484h2.655v-2.971h-2.655v-3.629h-3.264v3.629h-3.849l5.7-11.034Zm9.141 5.359c.098-1.34.877-2.387 2.339-2.387 1.388 0 2.241.876 2.241 2.094 0 1.316-1.194 2.533-2.753 4.214l-5.529 5.822v2.387h12.106v-3.167h-7.064l3.386-3.605c1.802-1.9 3.458-3.58 3.458-5.797 0-3.142-2.192-5.212-5.845-5.212-3.435 0-5.773 2.411-6.114 5.651h3.775Z"/><path id="purchase orders" fill="#002E6E" d="M376.71 380.168h.814c.971 0 1.635-.551 1.635-1.547 0-1.008-.664-1.553-1.635-1.553h-1.973v4.497h1.159v-1.397Zm0-.99v-1.127h.689c.426 0 .614.225.614.57 0 .332-.188.557-.614.557h-.689Zm7.455-2.11h-1.178v2.549c0 .645-.294.971-.783.971-.488 0-.783-.326-.783-.971v-2.549h-1.177v2.662c0 1.24.77 1.91 1.96 1.91s1.961-.67 1.961-1.91v-2.662Zm2.403.983h.739c.42 0 .614.219.614.551 0 .326-.194.539-.614.539h-.739v-1.09Zm-1.158 3.514h1.158v-1.485h.42l.933 1.485h1.303l-1.052-1.61c.551-.213.895-.676.895-1.353 0-.983-.67-1.534-1.634-1.534h-2.023v4.497Zm7.584-1.516c-.119.338-.363.551-.777.551-.614 0-.971-.551-.971-1.284 0-.745.357-1.284.971-1.284.414 0 .658.207.777.539h1.171c-.163-.908-.82-1.579-1.948-1.579-1.252 0-2.161.965-2.161 2.324s.909 2.324 2.161 2.324c1.128 0 1.785-.67 1.948-1.591h-1.171Zm5.199-2.981v1.703h-1.735v-1.703h-1.178v4.497h1.178v-1.785h1.735v1.785h1.177v-4.497h-1.177Zm4.489 1.39.464 1.265h-.927l.463-1.265Zm1.14 3.107h1.19l-1.71-4.497H402.1l-1.717 4.497h1.165l.32-.871h1.635l.319.871Zm1.911-1.334c.162.883.895 1.409 1.973 1.409.983 0 1.76-.533 1.76-1.453 0-.689-.426-1.121-1.197-1.297l-.877-.206c-.238-.057-.375-.163-.375-.357 0-.245.225-.395.557-.395.388 0 .601.188.695.438h1.153c-.126-.782-.746-1.378-1.854-1.378-.99 0-1.729.577-1.729 1.46 0 .764.501 1.108 1.165 1.246l.858.188c.288.069.432.163.432.376 0 .276-.25.432-.607.432-.37 0-.633-.15-.733-.463h-1.221Zm4.858-3.163v4.497h3.22v-1.021h-2.061v-.777h1.879v-.983h-1.879v-.708h2.061v-1.008h-3.22Zm8.548-.076c-1.296 0-2.198.978-2.198 2.324 0 1.341.902 2.324 2.198 2.324 1.297 0 2.199-.983 2.199-2.324 0-1.346-.902-2.324-2.199-2.324Zm0 1.034c.602 0 1.009.514 1.009 1.29 0 .777-.407 1.29-1.009 1.29-.607 0-1.008-.513-1.008-1.29 0-.776.401-1.29 1.008-1.29Zm4.484.025h.739c.42 0 .614.219.614.551 0 .326-.194.539-.614.539h-.739v-1.09Zm-1.158 3.514h1.158v-1.485h.42l.933 1.485h1.303l-1.052-1.61c.551-.213.895-.676.895-1.353 0-.983-.67-1.534-1.634-1.534h-2.023v4.497Zm4.828 0h1.704c1.403 0 2.261-.877 2.261-2.249 0-1.371-.858-2.248-2.261-2.248h-1.704v4.497Zm1.159-1.021v-2.468h.482c.752 0 1.165.476 1.165 1.24 0 .752-.413 1.228-1.165 1.228h-.482Zm3.926-3.476v4.497h3.22v-1.021h-2.061v-.777h1.879v-.983h-1.879v-.708h2.061v-1.008h-3.22Zm5.596.983h.739c.42 0 .614.219.614.551 0 .326-.194.539-.614.539h-.739v-1.09Zm-1.159 3.514h1.159v-1.485h.42l.933 1.485h1.302l-1.052-1.61c.551-.213.896-.676.896-1.353 0-.983-.67-1.534-1.635-1.534h-2.023v4.497Zm4.59-1.334c.163.883.896 1.409 1.973 1.409.983 0 1.76-.533 1.76-1.453 0-.689-.426-1.121-1.196-1.297l-.877-.206c-.238-.057-.376-.163-.376-.357 0-.245.226-.395.558-.395.388 0 .601.188.695.438h1.152c-.125-.782-.745-1.378-1.854-1.378-.989 0-1.728.577-1.728 1.46 0 .764.501 1.108 1.165 1.246l.858.188c.288.069.432.163.432.376 0 .276-.251.432-.608.432-.369 0-.632-.15-.732-.463h-1.222Z" opacity=".4"/><path id="inventory copy" fill="#002E6E" d="M480.99 377.068h-1.177v4.497h1.177v-4.497Zm5.273 0h-1.133v2.474l-1.741-2.474h-1.097v4.497h1.134v-2.631l1.885 2.631h.952v-4.497Zm3.841 4.497 1.679-4.497h-1.209l-1.027 2.906-1.015-2.906h-1.259l1.685 4.497h1.146Zm2.701-4.497v4.497h3.22v-1.021h-2.061v-.777h1.879v-.983h-1.879v-.708h2.061v-1.008h-3.22Zm8.408 0h-1.133v2.474l-1.742-2.474h-1.096v4.497h1.134v-2.631l1.885 2.631h.952v-4.497Zm1.104 1.008h1.39v3.489h1.178v-3.489h1.39v-1.008h-3.958v1.008Zm6.917-1.084c-1.297 0-2.198.978-2.198 2.324 0 1.341.901 2.324 2.198 2.324 1.296 0 2.198-.983 2.198-2.324 0-1.346-.902-2.324-2.198-2.324Zm0 1.034c.601 0 1.008.514 1.008 1.29 0 .777-.407 1.29-1.008 1.29-.608 0-1.008-.513-1.008-1.29 0-.776.4-1.29 1.008-1.29Zm4.484.025h.739c.42 0 .614.219.614.551 0 .326-.194.539-.614.539h-.739v-1.09Zm-1.159 3.514h1.159v-1.485h.42l.933 1.485h1.303l-1.053-1.61c.552-.213.896-.676.896-1.353 0-.983-.67-1.534-1.635-1.534h-2.023v4.497Zm6.599-2.744-.94-1.753h-1.278l1.598 2.9v1.597h1.183v-1.597l1.616-2.9h-1.227l-.952 1.753Z" opacity=".4"/><path id="84,171" fill="#002E6E" d="M382.325 349.853c-3.069 0-5.724 1.753-5.724 4.92 0 1.851 1.048 3.264 2.485 3.873-1.657.462-3.045 1.997-3.045 4.213 0 3.167 2.801 5.067 6.284 5.067 3.483 0 6.284-1.9 6.284-5.067 0-2.216-1.388-3.751-3.044-4.213 1.437-.609 2.509-2.022 2.509-3.873 0-3.167-2.704-4.92-5.749-4.92Zm-2.362 5.042c0-1.413 1.071-2.241 2.362-2.241 1.267 0 2.363.828 2.363 2.241 0 1.388-1.096 2.216-2.363 2.216-1.291 0-2.362-.828-2.362-2.216Zm-.415 7.648c0-1.535 1.194-2.46 2.777-2.46 1.583 0 2.777.925 2.777 2.46 0 1.534-1.194 2.484-2.777 2.484-1.583 0-2.777-.95-2.777-2.484Zm20.095-12.398h-3.581l-6.016 11.399v2.606h7.746v3.483h3.264v-3.483h2.654v-2.971h-2.654v-3.63h-3.264v3.63h-3.849l5.7-11.034Zm5.17 20.606h2.265l1.632-2.436c.487-.779.926-1.705.926-2.557 0-1.583-1.023-2.412-2.241-2.412-1.243 0-2.241.902-2.241 2.144 0 1.169.779 1.875 1.729 2.046l-2.07 3.215Zm12.05-20.606h-2.29l-5.359 2.606v3.581l4.092-2.046v13.347h3.557v-17.488Zm14.037 2.606v-2.606h-11.838v3.166h8.038l-5.602 14.322h3.653l5.749-14.882Zm8.845-2.606h-2.289l-5.359 2.606v3.581l4.092-2.046v13.347h3.556v-17.488Z"/><path id="1.3m copy" fill="#002E6E" d="M487.586 350.145h-2.29l-5.359 2.606v3.581l4.092-2.046v13.347h3.557v-17.488Zm6.973 15.418c0-1.291-.999-2.265-2.241-2.265s-2.241.974-2.241 2.265c0 1.291.999 2.265 2.241 2.265s2.241-.974 2.241-2.265Zm6.426-5.407h1.096c1.632 0 2.801.852 2.801 2.338 0 1.388-1.072 2.338-2.558 2.338-1.729 0-2.679-1.071-2.849-2.606h-3.581c.195 3.386 2.704 5.7 6.455 5.7 3.726 0 5.992-2.314 5.992-5.359 0-1.608-.78-3.118-2.412-3.824 1.242-.609 2.119-2.119 2.119-3.8 0-2.971-2.143-5.09-5.675-5.09-3.507 0-5.797 2.387-6.162 5.504h3.556c.097-1.364.95-2.411 2.533-2.411 1.461 0 2.314.95 2.314 2.168 0 1.461-1.12 2.192-2.631 2.192h-.998v2.85Zm27.881 7.477v-8.305c0-2.875-1.583-4.701-4.189-4.701-1.778 0-2.996.682-3.873 1.607-.706-.925-1.9-1.607-3.41-1.607-1.413 0-2.582.535-3.191 1.339v-1.047h-3.556v12.714h3.556v-8.208c.219-1.072 1.072-1.656 1.973-1.656 1.218 0 1.802.925 1.802 2.289v7.575h3.532v-8.208c.244-1.072 1.096-1.656 2.022-1.656 1.218 0 1.802.925 1.802 2.289v7.575h3.532Z"/><path id="28,232" fill="#002E6E" d="M379.646 301.557c.097-1.34.877-2.387 2.338-2.387 1.389 0 2.241.876 2.241 2.094 0 1.316-1.193 2.533-2.752 4.214l-5.529 5.822v2.387h12.105v-3.167h-7.063l3.385-3.605c1.803-1.9 3.459-3.58 3.459-5.797 0-3.142-2.192-5.212-5.846-5.212-3.434 0-5.772 2.411-6.113 5.651h3.775Zm16.333-5.651c-3.069 0-5.724 1.753-5.724 4.92 0 1.851 1.047 3.264 2.484 3.873-1.656.462-3.045 1.997-3.045 4.214 0 3.166 2.801 5.066 6.285 5.066 3.483 0 6.284-1.9 6.284-5.066 0-2.217-1.389-3.752-3.045-4.214 1.437-.609 2.509-2.022 2.509-3.873 0-3.167-2.704-4.92-5.748-4.92Zm-2.363 5.042c0-1.413 1.072-2.241 2.363-2.241 1.266 0 2.362.828 2.362 2.241 0 1.388-1.096 2.216-2.362 2.216-1.291 0-2.363-.828-2.363-2.216Zm-.414 7.648c0-1.535 1.193-2.46 2.777-2.46 1.583 0 2.776.925 2.776 2.46 0 1.534-1.193 2.484-2.776 2.484-1.584 0-2.777-.95-2.777-2.484Zm10.231 8.208h2.265l1.632-2.435c.488-.78.926-1.705.926-2.558 0-1.583-1.023-2.411-2.241-2.411-1.242 0-2.241.901-2.241 2.143 0 1.169.78 1.876 1.73 2.046l-2.071 3.215Zm10.299-15.247c.097-1.34.877-2.387 2.338-2.387 1.388 0 2.241.876 2.241 2.094 0 1.316-1.194 2.533-2.752 4.214l-5.53 5.822v2.387h12.106v-3.167h-7.064l3.386-3.605c1.803-1.9 3.459-3.58 3.459-5.797 0-3.142-2.192-5.212-5.846-5.212-3.434 0-5.773 2.411-6.114 5.651h3.776Zm14.817 4.652h1.096c1.632 0 2.801.852 2.801 2.338 0 1.389-1.071 2.338-2.557 2.338-1.73 0-2.679-1.071-2.85-2.606h-3.58c.194 3.386 2.703 5.7 6.454 5.7 3.727 0 5.992-2.314 5.992-5.359 0-1.607-.779-3.118-2.411-3.824 1.242-.609 2.119-2.119 2.119-3.8 0-2.971-2.144-5.09-5.675-5.09-3.508 0-5.797 2.387-6.163 5.504h3.556c.098-1.364.95-2.411 2.533-2.411 1.462 0 2.314.95 2.314 2.168 0 1.461-1.12 2.192-2.63 2.192h-.999v2.85Zm12.608-4.652c.098-1.34.877-2.387 2.339-2.387 1.388 0 2.241.876 2.241 2.094 0 1.316-1.194 2.533-2.753 4.214l-5.529 5.822v2.387h12.106v-3.167h-7.064l3.386-3.605c1.802-1.9 3.459-3.58 3.459-5.797 0-3.142-2.193-5.212-5.846-5.212-3.435 0-5.773 2.411-6.114 5.651h3.775Z"/></g></g><path id="Mask_9" fill="url(#paint0_linear_5321_73657)" d="M52 69.155h67.77V427H67.658C59.01 427 52 419.99 52 411.342V69.155Z"/><g id="Group 21"><g id="cin7-white" fill="#fff"><path id="Fill-7_2" d="m79.584 119.534 3.474 1.675 1.01.488-5.323-23.355h-3.991l4.83 21.192Z" opacity=".5"/><path id="Fill-8" d="m70.614 115.208 4.485 2.163-4.337-19.03h-3.993l3.845 16.867Z" opacity=".5"/><path id="Fill-12" d="m89.23 109.319-2.502-10.977h-3.992l4.498 19.734 1.996-8.757Z" opacity=".5"/><path id="Fill-9" d="m93.957 118.962-3.89 1.876 7.439-32.64 2.692 3.38-6.241 27.384Z"/><path id="Fill-10" d="m101.741 115.208-3.893 1.878 5.043-22.127 2.694 3.383-3.844 16.866Z"/><path id="Fill-11" d="m77.54 84.817-2.693 3.381h15.734l-.77 3.381H72.154l-2.692 3.382H89.04l-.77 3.38h-21.5l.77 3.382H87.5l-4.442 19.486 3.12 1.505 8.637-37.897H77.54Z"/></g><g id="min-icon/b2b"><g id="Group 7_2" stroke="#4896FF" stroke-linecap="round" stroke-linejoin="round" stroke-width="1.983"><path id="Stroke 1" fill-rule="evenodd" d="m93.798 232.967-8.987 4.217-8.987-4.217 8.987-4.217 8.987 4.217Z" clip-rule="evenodd"/><path id="Stroke 3" d="M75.824 232.967v9.993l8.987 4.217 8.987-4.217v-9.993"/><path id="Stroke 5" d="M84.812 247.177v-5.57"/></g></g><g id="min-icon/pos"><g id="Group 5_3" stroke="#4896FF" stroke-linecap="round" stroke-linejoin="round" stroke-width="1.983"><path id="Stroke 1_2" d="M81.066 283.966h-5.242v-12.337h19.139v12.337H89.72"/><path id="Stroke 3_2" fill-rule="evenodd" d="M90.82 287.394H79.966l1.1-3.428v-3.709h8.655v3.709l1.1 3.428Z" clip-rule="evenodd"/></g></g><g id="min-icon/warehouse" stroke="#4896FF" stroke-linecap="round" stroke-linejoin="round" stroke-width="1.983"><path id="Stroke 1_3" d="M75.117 323.825v-7.277l4.203 5.37h6.63"/><path id="Stroke 3_3" fill-rule="evenodd" d="M89.058 325.03a3.11 3.11 0 0 1-3.107 3.112 3.11 3.11 0 0 1-3.107-3.112 3.109 3.109 0 0 1 3.107-3.112 3.11 3.11 0 0 1 3.107 3.112Z" clip-rule="evenodd"/><path id="Stroke 5_2" fill-rule="evenodd" d="M78.388 325.866a2.274 2.274 0 0 1-2.272 2.276 2.274 2.274 0 0 1-2.272-2.276 2.274 2.274 0 0 1 2.272-2.276 2.274 2.274 0 0 1 2.272 2.276Z" clip-rule="evenodd"/><path id="Stroke 7" d="M91.307 311.533v14.333h5.708"/><path id="Stroke 9" d="M75.117 317.971v-6.438h6.948l5.719 7.149v3.837"/><path id="Stroke 11" d="M78.389 325.866h4.569"/></g><g id="min-icon/inventory-management" stroke="#4896FF" stroke-linecap="round" stroke-linejoin="round" stroke-width="1.983"><path id="Stroke 1_4" d="M89.037 148.201h2.298c1.188 0 2.15.964 2.15 2.153v12.991a2.15 2.15 0 0 1-2.15 2.153h-11.38a2.15 2.15 0 0 1-2.15-2.153v-12.991c0-1.189.961-2.153 2.15-2.153h2.298"/><path id="Stroke 3_4" fill-rule="evenodd" d="M86.963 150.124h-2.635a2.076 2.076 0 0 1-2.074-2.079c0-1.146.929-2.077 2.074-2.077h2.635c1.146 0 2.075.931 2.075 2.077 0 1.149-.93 2.079-2.075 2.079Z" clip-rule="evenodd"/><path id="Stroke 5_3" d="m82.781 157.947 1.803 1.736 3.86-4.031"/></g><path id="Rectangle_4" fill="#000" fill-opacity=".2" d="M52 178.789h67.77v36.545H52z"/><g id="min-icon/reports" stroke="#fff" stroke-linecap="round" stroke-linejoin="round" stroke-width="1.983"><path id="Stroke 1_5" fill-rule="evenodd" d="M83.226 201.31a4.198 4.198 0 0 1-4.195 4.202 4.2 4.2 0 0 1-4.197-4.202 4.2 4.2 0 0 1 4.197-4.202 4.199 4.199 0 0 1 4.195 4.202Z" clip-rule="evenodd"/><path id="Stroke 3_5" d="M83.227 201.31v-10.482c0-1.094-.885-1.98-1.978-1.98-.775 0-1.44.451-1.764 1.103l-.005-.001-.02.048c-.016.034-.032.067-.046.103l-4.16 9.377"/><path id="Stroke 5_4" fill-rule="evenodd" d="M87.33 201.31a4.2 4.2 0 0 0 4.197 4.202 4.198 4.198 0 0 0 4.195-4.202 4.199 4.199 0 0 0-4.195-4.202 4.2 4.2 0 0 0-4.197 4.202Z" clip-rule="evenodd"/><path id="Stroke 7_2" d="M87.33 201.31v-10.482c0-1.094.886-1.98 1.978-1.98a1.97 1.97 0 0 1 1.765 1.103l.004-.001.02.048c.017.034.033.067.047.103l4.16 9.377"/><path id="Stroke 9_2" d="M83.227 194.929h4.103"/></g></g></g><defs><clipPath id="clip0_5321_73657"><path fill="#fff" d="M142.984 93.518h189.08v213.316h-189.08z"/></clipPath><clipPath id="clip1_5321_73657"><path fill="#fff" d="M252.715 115.942h58.534v13.374h-58.534z"/></clipPath><clipPath id="clip2_5321_73657"><path fill="#fff" d="M223.457 203.152h62.557v21.82h-62.557z"/></clipPath><clipPath id="clip3_5321_73657"><path fill="#fff" d="M143.227 331.928h189.08v213.316h-189.08z"/></clipPath><clipPath id="clip4_5321_73657"><path fill="#fff" d="M252.957 354.352h58.534v13.374h-58.534z"/></clipPath><clipPath id="clip5_5321_73657"><path fill="#fff" d="M355.229 93.518H558.54v309.76H355.229z"/></clipPath><clipPath id="clip6_5321_73657"><path fill="#fff" d="M369.998 115.271h163.164V256.62H369.998z"/></clipPath><linearGradient id="paint0_linear_5321_73657" x1="18.115" x2="148.963" y1="248.077" y2="272.858" gradientUnits="userSpaceOnUse"><stop stop-color="#4D99FF"/><stop offset="1" stop-color="#00CFC0"/></linearGradient><filter id="filter0_dd_5321_73657" width="633.986" height="500.937" x="0" y="0" color-interpolation-filters="sRGB"><feFlood flood-opacity="0" result="BackgroundImageFix"/><feColorMatrix in="SourceAlpha" result="hardAlpha" type="matrix" values="0 0 0 0 0 0 0 0 0 0 0 0 0 0 0 0 0 0 127 0"/><feOffset dy="22"/><feGaussianBlur stdDeviation="26"/><feColorMatrix type="matrix" values="0 0 0 0 0 0 0 0 0 0.180392 0 0 0 0 0.431373 0 0 0 0.2 0"/><feBlend in2="BackgroundImageFix" mode="normal" result="effect1_dropShadow_5321_73657"/><feColorMatrix in="SourceAlpha" result="hardAlpha" type="matrix" values="0 0 0 0 0 0 0 0 0 0 0 0 0 0 0 0 0 0 127 0"/><feOffset dy="13"/><feGaussianBlur stdDeviation="9"/><feColorMatrix type="matrix" values="0 0 0 0 0 0 0 0 0 0.180392 0 0 0 0 0.431373 0 0 0 0.1 0"/><feBlend in2="effect1_dropShadow_5321_73657" mode="normal" result="effect2_dropShadow_5321_73657"/><feBlend in="SourceGraphic" in2="effect2_dropShadow_5321_73657" mode="normal" result="shape"/></filter></defs></svg>